<?xml version="1.0" standalone="no"?>
<!DOCTYPE svg PUBLIC "-//W3C//DTD SVG 20010904//EN"
 "http://www.w3.org/TR/2001/REC-SVG-20010904/DTD/svg10.dtd">
<svg version="1.0" xmlns="http://www.w3.org/2000/svg"
 width="300.000000pt" height="300.000000pt" viewBox="0 0 300.000000 300.000000"
 preserveAspectRatio="xMidYMid meet">
<metadata>
Created by potrace 1.10, written by Peter Selinger 2001-2011
</metadata>
<g transform="translate(0.000000,300.000000) scale(0.100000,-0.100000)"
fill="#63452c" stroke="none">
<path d="M2156 2932 c-3 -5 11 -9 30 -10 20 -1 32 3 29 8 -8 12 -52 13 -59 2z"/>
<path d="M1483 2923 c9 -2 23 -2 30 0 6 3 -1 5 -18 5 -16 0 -22 -2 -12 -5z"/>
<path d="M570 2906 c-81 -26 -197 -98 -263 -163 -92 -91 -160 -246 -177 -400
-8 -80 -4 -1082 5 -1091 3 -3 5 244 5 549 0 453 3 565 15 617 56 236 216 410
445 483 33 10 45 17 30 17 -14 0 -41 -5 -60 -12z"/>
<path d="M2410 2908 c3 -3 21 -10 40 -17 19 -6 30 -7 25 -2 -6 5 -23 13 -40
17 -16 4 -28 5 -25 2z"/>
<path d="M670 2885 c-77 -15 -130 -34 -130 -46 0 -4 -7 -5 -17 -2 -12 5 -14 3
-8 -7 5 -8 4 -11 -2 -7 -21 13 -79 -28 -164 -113 -81 -80 -106 -116 -151 -212
l-17 -38 72 0 c72 0 72 0 86 33 8 17 23 44 33 60 11 15 17 27 13 27 -3 0 21
24 53 53 40 35 56 55 48 60 -7 6 -4 7 6 3 10 -3 46 8 80 24 35 17 70 30 78 31
10 0 9 3 -4 8 -12 5 -34 0 -60 -12 -23 -11 -57 -19 -77 -18 -25 1 -40 -4 -50
-16 -11 -15 -11 -16 1 -5 8 6 28 11 45 11 27 -2 27 -2 5 -6 -30 -6 -52 -22
-44 -34 3 -5 -2 -9 -11 -9 -10 0 -13 -5 -9 -12 5 -8 0 -9 -14 -6 -13 4 -20 2
-16 -3 6 -11 -46 -65 -59 -61 -5 1 -6 -2 -2 -7 9 -15 -23 -71 -41 -71 -8 0
-12 5 -9 11 4 6 -3 5 -14 -3 -21 -13 -21 -13 8 -16 21 -2 28 -7 24 -18 -4 -10
-21 -14 -62 -13 -40 0 -50 3 -36 9 20 9 20 9 0 10 -17 2 -16 3 5 10 21 7 22 8
5 9 -18 1 -17 3 5 14 17 9 27 10 32 3 5 -8 8 -8 8 0 0 19 -13 24 -28 11 -13
-10 -14 -9 -4 10 7 12 17 25 24 29 7 5 8 3 3 -7 -7 -11 -5 -11 10 1 16 13 16
15 2 18 -10 2 -14 9 -10 18 5 13 7 13 14 2 6 -9 9 -7 9 10 0 13 6 22 16 22 8
0 12 4 9 10 -3 5 13 30 37 55 32 33 51 45 73 46 24 0 26 2 11 8 -18 7 -18 8
-2 14 9 4 15 10 12 15 -5 8 15 12 84 13 33 1 38 3 21 8 -19 5 -21 8 -10 17 17
13 88 31 154 39 104 13 106 13 96 1 -6 -8 2 -11 27 -12 21 -1 27 1 15 3 -31 6
-29 21 2 19 14 0 25 -7 25 -13 0 -8 13 -13 29 -13 16 0 36 -3 45 -6 9 -3 16
-1 16 6 0 6 -4 9 -9 5 -5 -3 -12 -1 -15 3 -3 5 -17 7 -31 4 -14 -2 -25 0 -25
5 0 21 182 15 203 -6 6 -6 20 -11 32 -10 20 0 20 1 0 8 -17 7 -14 9 15 13 19
3 41 1 49 -6 11 -8 13 -8 7 2 -5 9 -1 11 16 8 13 -3 25 -5 28 -6 3 -2 9 -2 14
-1 5 1 34 3 65 3 31 1 59 6 64 12 5 8 10 7 16 -3 7 -10 13 -11 31 -1 13 7 25
8 29 3 9 -13 51 -14 51 -1 0 7 5 6 15 -2 8 -6 20 -8 26 -4 8 5 9 3 4 -7 -7
-11 -6 -12 6 -2 12 10 18 10 29 0 10 -10 11 -9 5 3 -8 13 -7 13 8 1 10 -8 17
-9 17 -3 0 6 13 10 30 10 16 -1 27 -4 25 -8 -2 -4 2 -7 10 -7 8 0 15 4 15 9 0
4 25 8 56 8 30 0 53 -4 50 -8 -3 -5 1 -9 9 -9 8 0 12 4 9 8 -2 4 24 8 58 8 46
0 59 -3 48 -10 -12 -9 -10 -9 5 -3 11 4 38 8 61 9 22 1 45 4 50 6 5 3 29 5 54
4 88 -4 94 -9 20 -15 -52 -4 -16 -7 117 -7 113 -1 200 -6 210 -12 10 -6 12
-11 6 -11 -7 0 -13 -4 -13 -10 0 -5 20 -10 44 -10 50 0 76 -7 76 -22 0 -5 -6
-6 -12 -2 -7 4 -10 4 -6 -1 4 -4 -3 -16 -15 -27 -22 -19 -22 -19 8 0 23 15 33
17 42 8 30 -28 43 -36 43 -26 0 5 5 10 11 10 5 0 7 -4 4 -10 -3 -5 1 -10 11
-10 11 0 15 -6 11 -20 -3 -11 -1 -20 4 -20 5 0 9 5 9 10 0 6 8 5 20 -2 11 -7
20 -17 20 -23 0 -6 12 -18 28 -28 27 -18 27 -18 -55 -14 -45 2 -80 0 -77 -5 8
-12 164 -10 164 3 0 6 -26 36 -57 68 -59 58 -148 114 -200 127 -15 4 -37 13
-48 20 -11 8 -43 14 -73 14 -34 0 -51 4 -47 10 4 7 -8 8 -37 4 -32 -4 -39 -3
-28 5 23 17 -1514 13 -1600 -4z"/>
<path d="M2504 2875 c22 -17 40 -20 32 -6 -3 5 -16 11 -28 14 -22 6 -22 5 -4
-8z"/>
<path d="M970 2865 c0 -8 5 -15 10 -15 6 0 10 7 10 15 0 8 -4 15 -10 15 -5 0
-10 -7 -10 -15z"/>
<path d="M1025 2859 c-27 -6 -25 -7 13 -6 23 0 42 1 42 3 0 7 -29 9 -55 3z"/>
<path d="M1412 2851 c-11 -7 -11 -9 0 -13 18 -7 39 2 32 13 -6 11 -15 11 -32
0z"/>
<path d="M2550 2855 c0 -2 16 -12 37 -21 20 -10 73 -54 118 -98 93 -92 140
-175 175 -312 19 -73 20 -112 21 -635 1 -306 5 -562 9 -570 5 -7 9 235 10 537
1 612 -2 642 -65 794 -19 46 -38 86 -42 89 -5 3 -21 24 -38 46 -56 75 -225
203 -225 170z"/>
<path d="M1768 2843 c6 -2 18 -2 25 0 6 3 1 5 -13 5 -14 0 -19 -2 -12 -5z"/>
<path d="M2381 2839 c18 -11 39 -11 39 0 0 5 -12 9 -26 9 -18 0 -22 -3 -13 -9z"/>
<path d="M1185 2829 c-3 -4 2 -6 10 -5 21 3 28 13 10 13 -9 0 -18 -4 -20 -8z"/>
<path d="M1448 2829 c-10 -5 -18 -15 -18 -22 0 -8 3 -9 8 -1 4 6 16 16 27 22
11 6 16 11 10 11 -5 0 -18 -4 -27 -10z"/>
<path d="M1740 2836 c0 -2 8 -10 18 -17 15 -13 16 -12 3 4 -13 16 -21 21 -21
13z"/>
<path d="M1890 2831 c0 -6 4 -13 10 -16 6 -3 7 1 4 9 -7 18 -14 21 -14 7z"/>
<path d="M2064 2833 c6 -7 259 -4 265 3 3 3 -57 4 -133 3 -75 0 -135 -3 -132
-6z"/>
<path d="M568 2823 c7 -3 16 -2 19 1 4 3 -2 6 -13 5 -11 0 -14 -3 -6 -6z"/>
<path d="M805 2820 c-16 -7 -17 -9 -3 -9 9 -1 20 4 23 9 7 11 7 11 -20 0z"/>
<path d="M972 2825 c3 -3 16 -8 28 -10 12 -2 20 -1 16 2 -4 4 -16 8 -28 10
-12 2 -19 1 -16 -2z"/>
<path d="M1056 2818 c3 -5 10 -6 15 -3 13 9 11 12 -6 12 -8 0 -12 -4 -9 -9z"/>
<path d="M1095 2821 c-3 -5 -2 -12 3 -15 5 -3 9 1 9 9 0 17 -3 19 -12 6z"/>
<path d="M2017 2813 c3 -7 6 -13 8 -13 2 0 5 6 8 13 3 8 -1 14 -8 14 -7 0 -11
-6 -8 -14z"/>
<path d="M695 2810 c-3 -5 -1 -10 4 -10 6 0 11 5 11 10 0 6 -2 10 -4 10 -3 0
-8 -4 -11 -10z"/>
<path d="M744 2799 c-4 -7 -3 -9 4 -5 6 3 13 2 16 -3 4 -5 -6 -12 -21 -14 -26
-4 -26 -4 5 -6 34 -1 41 9 18 28 -11 9 -16 9 -22 0z"/>
<path d="M956 2798 c5 -7 2 -9 -8 -6 -8 4 -15 1 -15 -5 0 -7 10 -12 22 -12 24
0 30 21 8 29 -9 4 -11 1 -7 -6z"/>
<path d="M1143 2795 c0 -8 4 -12 9 -9 5 3 6 10 3 15 -9 13 -12 11 -12 -6z"/>
<path d="M1372 2801 c-11 -7 -10 -10 3 -15 20 -7 38 1 30 15 -7 11 -16 11 -33
0z"/>
<path d="M1458 2803 c7 -3 16 -2 19 1 4 3 -2 6 -13 5 -11 0 -14 -3 -6 -6z"/>
<path d="M2078 2803 c12 -2 30 -2 40 0 9 3 -1 5 -23 4 -22 0 -30 -2 -17 -4z"/>
<path d="M2180 2800 c38 -6 31 -16 -7 -11 -7 1 -13 -2 -13 -7 0 -12 54 -10 62
2 12 18 -2 26 -45 24 l-42 -1 45 -7z"/>
<path d="M2390 2800 c-24 -8 -23 -8 8 -9 20 -1 31 3 27 9 -3 6 -7 10 -8 9 -1
-1 -13 -5 -27 -9z"/>
<path d="M2500 2800 c-9 -6 -10 -10 -3 -10 6 0 15 5 18 10 8 12 4 12 -15 0z"/>
<path d="M790 2786 c0 -14 37 -19 45 -5 4 5 3 9 -2 10 -4 0 -16 2 -25 4 -10 2
-18 -2 -18 -9z"/>
<path d="M1010 2784 c-18 -10 -20 -14 -8 -14 9 0 20 5 23 10 4 6 11 7 17 4 7
-4 8 -2 4 4 -4 7 -8 12 -9 11 -1 -1 -13 -7 -27 -15z"/>
<path d="M1253 2785 c0 -8 4 -12 9 -9 5 3 6 10 3 15 -9 13 -12 11 -12 -6z"/>
<path d="M858 2783 c6 -2 18 -2 25 0 6 3 1 5 -13 5 -14 0 -19 -2 -12 -5z"/>
<path d="M900 2780 c0 -5 5 -10 10 -10 6 0 10 5 10 10 0 6 -4 10 -10 10 -5 0
-10 -4 -10 -10z"/>
<path d="M1068 2778 c5 -5 16 -8 23 -6 8 3 3 7 -10 11 -17 4 -21 3 -13 -5z"/>
<path d="M1184 2778 c10 -6 22 -6 26 -2 5 5 -3 10 -18 11 -22 1 -24 0 -8 -9z"/>
<path d="M1420 2780 c0 -5 5 -10 10 -10 6 0 10 5 10 10 0 6 -4 10 -10 10 -5 0
-10 -4 -10 -10z"/>
<path d="M1805 2782 c9 -9 55 -10 60 -1 3 4 -10 8 -30 7 -19 -1 -33 -3 -30 -6z"/>
<path d="M1900 2777 c0 -4 47 -7 105 -6 58 1 103 4 100 7 -8 8 -205 7 -205 -1z"/>
<path d="M2130 2780 c-13 -8 -12 -10 3 -10 9 0 17 5 17 10 0 12 -1 12 -20 0z"/>
<path d="M2235 2780 c-3 -5 -1 -10 4 -10 6 0 11 5 11 10 0 6 -2 10 -4 10 -3 0
-8 -4 -11 -10z"/>
<path d="M550 2772 c0 -7 -18 -13 -42 -14 l-43 -1 39 -4 c37 -4 67 9 53 24 -4
3 -7 1 -7 -5z"/>
<path d="M670 2769 c0 -5 9 -9 20 -9 11 0 20 2 20 4 0 2 -9 6 -20 9 -11 3 -20
1 -20 -4z"/>
<path d="M2261 2776 c2 -2 24 -6 49 -9 25 -2 54 -7 65 -11 11 -4 36 -13 55
-20 19 -7 46 -9 60 -5 22 6 10 14 -14 10 -4 -1 -13 2 -20 7 -6 4 -27 9 -46 11
-19 1 -39 7 -44 12 -6 5 -32 9 -60 9 -27 0 -47 -2 -45 -4z"/>
<path d="M716 2749 c-157 -26 -292 -122 -355 -252 -51 -106 -51 -104 -51 -954
0 -539 4 -809 11 -845 37 -176 171 -318 344 -363 51 -13 173 -15 865 -15 l805
0 83 29 c141 49 216 121 283 271 l24 55 3 825 c2 603 0 840 -8 880 -29 134
-129 265 -245 320 -125 59 -140 60 -962 59 -411 -1 -770 -5 -797 -10z m1617
-54 c172 -36 306 -168 348 -342 18 -74 31 -1551 15 -1663 -3 -24 -13 -48 -21
-52 -8 -5 -12 -15 -9 -23 4 -8 1 -15 -7 -15 -7 0 -9 -3 -6 -6 10 -10 -24 -64
-70 -109 -51 -52 -110 -87 -188 -113 -66 -22 -21 -21 -765 -22 -856 -1 -915 1
-990 28 -8 3 -17 6 -20 6 -19 5 -70 32 -70 38 0 5 -5 8 -10 8 -47 0 -181 158
-166 196 3 8 2 12 -4 9 -6 -3 -10 2 -10 12 0 11 -6 25 -12 32 -10 9 -12 63
-10 214 1 111 5 477 8 812 5 572 7 614 26 680 26 92 54 139 120 202 63 59 116
88 196 107 86 21 1547 22 1645 1z m305 -180 c-3 -3 -9 2 -12 12 -6 14 -5 15 5
6 7 -7 10 -15 7 -18z"/>
<path d="M680 2674 c-134 -36 -252 -149 -285 -274 -3 -14 9 3 27 38 57 108
143 180 256 214 61 18 101 20 425 23 197 2 361 6 364 9 4 3 -160 6 -363 5
-292 0 -380 -3 -424 -15z"/>
<path d="M1484 2683 c4 -4 190 -8 414 -8 375 -1 411 -2 462 -20 77 -27 152
-78 211 -144 39 -43 47 -48 32 -23 -20 37 -94 113 -139 143 -16 11 -58 28 -93
39 -59 19 -92 20 -479 20 -228 0 -412 -3 -408 -7z"/>
<path d="M1484 2375 c-11 -27 4 -45 36 -45 27 0 30 3 30 30 0 27 -3 30 -30 30
-18 0 -33 -6 -36 -15z m43 -11 c-3 -3 -12 -4 -19 -1 -8 3 -5 6 6 6 11 1 17 -2
13 -5z"/>
<path d="M1207 2373 c-4 -3 -7 -17 -7 -30 0 -20 5 -23 35 -23 19 0 35 -4 35
-10 0 -14 -64 -12 -78 2 -9 9 -12 8 -12 -4 0 -18 34 -33 64 -29 26 4 55 33 38
39 -6 2 -12 14 -12 27 0 28 -44 48 -63 28z m43 -23 c0 -5 -4 -10 -9 -10 -6 0
-13 5 -16 10 -3 6 1 10 9 10 9 0 16 -4 16 -10z"/>
<path d="M1785 2367 c-3 -7 -6 -28 -7 -47 -3 -33 -1 -35 30 -38 31 -3 72 21
58 35 -3 4 -12 1 -18 -5 -15 -15 -68 -16 -68 -2 0 6 16 10 36 10 33 0 35 2 32
27 -2 22 -9 28 -31 30 -15 1 -30 -3 -32 -10z m45 -17 c0 -5 -4 -10 -9 -10 -6
0 -13 5 -16 10 -3 6 1 10 9 10 9 0 16 -4 16 -10z"/>
<path d="M630 2311 c0 -27 3 -30 38 -33 36 -4 37 -4 9 -12 -21 -6 -33 -4 -47
9 -16 15 -20 15 -20 4 0 -8 5 -20 12 -27 15 -15 64 -16 73 -2 4 6 10 8 15 5 4
-3 7 3 6 12 -2 9 -8 19 -14 21 -7 2 -12 15 -12 28 0 20 -5 24 -30 24 -27 0
-30 -3 -30 -29z m42 -3 c-9 -9 -15 -9 -24 0 -9 9 -7 12 12 12 19 0 21 -3 12
-12z"/>
<path d="M2350 2310 c0 -28 3 -30 36 -30 21 0 33 -4 29 -10 -9 -15 -52 -12
-68 5 -13 12 -16 12 -20 1 -8 -20 51 -48 74 -35 26 13 33 29 20 42 -6 6 -11
21 -11 34 0 19 -5 23 -30 23 -27 0 -30 -3 -30 -30z m45 11 c7 -12 -12 -24 -25
-16 -11 7 -4 25 10 25 5 0 11 -4 15 -9z"/>
<path d="M1472 2318 c7 -20 56 -34 75 -22 31 20 27 34 -6 23 -21 -8 -36 -7
-51 1 -18 10 -21 9 -18 -2z"/>
<path d="M1200 2240 c-178 -10 -318 -27 -412 -50 -92 -23 -129 -41 -157 -76
-24 -31 -28 -74 -7 -74 8 0 18 -4 21 -10 4 -6 -1 -7 -11 -3 -12 4 -15 3 -10
-5 4 -7 2 -12 -3 -12 -15 0 -14 -122 1 -171 6 -22 17 -39 24 -39 7 0 32 -9 54
-21 22 -12 47 -19 54 -16 19 8 40 -18 32 -39 -6 -15 -10 -14 -32 7 -20 18 -29
21 -42 13 -13 -9 -17 -27 -18 -85 -1 -41 1 -68 3 -61 4 9 9 10 18 2 16 -14 45
-2 45 19 1 9 7 -2 15 -24 16 -43 4 -71 -14 -36 -14 24 -36 27 -57 7 -18 -18
-15 -35 10 -57 20 -16 20 -17 -2 -30 -19 -12 -22 -22 -22 -88 0 -59 4 -77 18
-87 9 -7 22 -14 29 -14 14 0 28 37 24 67 -1 11 3 24 8 28 7 4 11 -15 11 -55 0
-34 4 -70 10 -80 7 -13 6 -21 -5 -30 -21 -18 -18 -54 6 -76 20 -18 21 -18 35
1 19 25 18 59 -2 76 -14 11 -14 13 1 22 10 5 21 4 32 -4 22 -19 45 -20 70 -3
20 13 23 12 33 -6 23 -42 76 -45 102 -6 15 21 9 131 -8 154 -15 21 -15 25 0
41 19 21 20 44 5 73 -8 14 -8 23 0 31 19 19 13 102 -7 120 -23 21 -65 22 -82
2 -11 -13 -15 -11 -32 10 -24 30 -51 32 -80 5 -25 -23 -50 -11 -29 14 9 11 10
20 1 35 -8 16 -7 26 6 45 8 14 15 27 15 30 -1 8 1 8 24 1 11 -4 26 -9 33 -11
12 -3 17 -46 6 -56 -3 -3 -14 -4 -25 -1 -13 4 -19 14 -19 35 0 17 -4 27 -10
23 -19 -12 -10 -54 15 -71 24 -16 27 -16 46 2 14 13 19 27 17 46 -4 23 -1 28
18 28 20 0 21 -4 16 -46 -5 -51 4 -64 49 -64 29 0 39 15 39 61 0 22 5 29 20
29 16 0 20 -7 20 -37 0 -51 12 -66 53 -68 32 -2 37 0 42 26 4 16 4 38 0 49 -4
14 -2 20 9 20 33 0 42 -11 38 -44 -3 -29 0 -37 25 -50 17 -9 22 -15 12 -16
-41 -1 -63 -92 -33 -137 10 -16 12 -28 6 -36 -19 -23 -17 -65 3 -87 19 -21 19
-22 1 -35 -14 -11 -18 -27 -17 -80 0 -69 11 -95 40 -95 10 0 7 -5 -9 -13 -38
-19 -40 -100 -2 -110 9 -3 -5 -5 -33 -4 -39 2 -49 5 -46 17 20 72 4 110 -45
110 -49 0 -73 -60 -38 -95 9 -9 15 -17 13 -19 -2 -2 -35 1 -74 5 -72 9 -89 12
-115 21 -8 3 -50 16 -94 27 -76 21 -79 22 -99 4 -20 -18 -20 -17 -15 4 5 17 0
24 -23 33 -24 10 -33 9 -64 -10 -19 -12 -40 -30 -45 -40 -13 -24 -13 -171 -1
-203 24 -63 201 -137 400 -167 194 -29 340 -37 581 -34 297 5 460 22 610 62
119 33 134 38 203 72 74 37 76 42 83 178 3 71 2 74 -29 108 -18 19 -46 37 -64
40 -28 6 -34 3 -44 -19 -10 -21 -15 -24 -29 -15 -14 9 -30 8 -66 -4 -52 -17
-62 -16 -47 4 39 51 -23 120 -66 74 -23 -25 -26 -47 -10 -78 8 -15 17 -18 37
-13 17 4 23 3 17 -3 -13 -12 -87 -30 -103 -24 -9 3 -8 8 5 20 24 22 23 60 -2
79 -20 15 -20 15 3 30 12 9 22 22 22 29 0 16 16 19 25 4 10 -16 72 -12 79 5 3
8 12 12 21 9 13 -6 14 -10 3 -28 -16 -26 -12 -75 8 -83 19 -7 44 15 44 38 0
22 4 23 29 7 25 -15 51 4 51 39 0 25 -20 53 -39 53 -15 0 -32 -36 -25 -54 9
-23 -13 -20 -26 3 -7 14 -7 22 1 26 6 4 10 23 9 44 -1 20 -1 56 1 81 2 44 3
44 8 -14 7 -70 28 -91 60 -62 18 16 21 31 21 98 0 46 -4 77 -9 73 -5 -3 -12
-1 -16 5 -9 15 -22 12 -44 -11 -27 -29 -47 -15 -24 16 12 16 24 22 36 19 10
-3 24 0 32 6 20 17 19 59 -1 67 -23 9 -49 -11 -48 -36 1 -19 -1 -20 -17 -5
-14 12 -22 13 -38 4 -26 -13 -30 -70 -6 -70 13 0 12 -4 -5 -22 -11 -12 -20
-25 -20 -30 0 -4 -7 -5 -16 -1 -13 5 -13 8 4 27 15 17 17 27 11 51 -5 17 -6
45 -3 62 6 32 6 32 23 12 16 -20 18 -20 34 -4 9 9 17 28 17 42 l0 25 18 -23
c34 -41 72 -1 72 77 0 36 -18 64 -41 64 -12 0 19 25 59 48 18 10 22 10 23 0 0
-7 7 1 15 17 8 19 14 64 14 120 0 50 2 102 6 117 20 88 -137 150 -446 178
-165 14 -621 20 -790 10z m550 -30 c333 -14 541 -46 611 -93 41 -28 45 -41 20
-64 -39 -36 -179 -68 -421 -94 -181 -20 -760 -18 -942 4 -216 26 -378 73 -378
110 0 57 172 104 455 127 262 20 376 22 655 10z m670 -165 c0 -8 -13 -21 -30
-30 -42 -22 -51 -18 -12 5 17 11 32 24 32 30 0 5 2 10 5 10 3 0 5 -7 5 -15z
m-1760 -60 c85 -77 581 -124 1084 -104 360 14 553 47 666 116 3 2 4 -31 2 -72
l-4 -76 -46 -34 c-52 -38 -72 -44 -67 -17 2 9 4 27 4 40 1 13 7 22 16 22 20 0
79 30 72 36 -3 3 -20 -2 -37 -11 -18 -9 -47 -15 -65 -13 -27 3 -31 1 -27 -18
3 -19 -4 -22 -80 -37 -220 -42 -224 -42 -673 -41 -375 0 -452 3 -520 18 -44 9
-96 19 -115 22 -19 3 -50 14 -68 25 -18 10 -41 19 -50 19 -15 1 -105 50 -91
50 4 0 27 -9 53 -21 26 -11 52 -18 59 -16 7 3 -1 10 -18 16 -16 6 -42 18 -57
26 -36 20 -48 19 -43 -6 5 -26 31 -47 67 -55 21 -5 27 -13 30 -40 2 -19 0 -34
-6 -34 -18 0 -96 51 -106 70 -11 21 -14 150 -3 150 3 0 14 -7 23 -15z m1675 5
c-3 -5 -16 -10 -28 -9 -20 1 -20 2 3 9 14 4 26 8 28 9 2 1 0 -3 -3 -9z m-1525
-19 c31 -6 37 -9 20 -11 -34 -3 -63 0 -75 10 -5 4 -19 10 -30 14 -11 3 -6 3
10 0 17 -3 50 -9 75 -13z m1465 0 c-16 -14 -55 -23 -55 -12 0 8 16 14 55 20 6
0 6 -2 0 -8z m-1361 -33 c-3 -5 -12 -4 -20 3 -19 16 -18 18 6 12 11 -3 17 -9
14 -15z m1266 13 c-8 -5 -44 -12 -79 -15 -59 -6 -85 -9 -181 -22 -24 -3 -30
-2 -20 5 8 5 58 14 110 20 52 6 109 13 125 15 60 6 62 6 45 -3z m-1230 -11 c0
-5 -4 -10 -10 -10 -5 0 -10 5 -10 10 0 6 5 10 10 10 6 0 10 -4 10 -10z m36 -1
c3 -6 19 -9 35 -5 15 3 31 1 34 -4 4 -6 23 -8 43 -5 20 3 51 1 67 -4 22 -8 4
-9 -70 -5 -55 3 -107 6 -116 6 -9 0 -16 6 -16 14 0 17 13 19 23 3z m874 -20
c0 -5 -17 -9 -37 -9 -21 0 -33 4 -26 8 17 10 63 11 63 1z m-1040 -136 c0 -47
-24 -38 -28 10 -3 30 0 36 12 31 10 -4 16 -19 16 -41z m1472 -30 c7 -9 7 -13
-1 -13 -6 0 -11 -7 -11 -16 0 -8 -5 -12 -11 -9 -19 12 -59 -4 -59 -25 0 -10 5
-22 10 -25 8 -5 7 -11 -1 -21 -9 -11 -15 -10 -31 11 -24 31 -45 32 -75 3 -20
-19 -27 -20 -43 -10 -11 7 -28 12 -37 12 -11 0 -6 7 15 16 26 14 32 22 32 48
0 18 -5 37 -12 44 -9 9 -6 12 15 12 24 0 26 -3 23 -31 -5 -40 15 -60 51 -50
21 6 29 15 34 41 4 18 5 39 2 47 -3 7 0 13 6 13 6 0 11 -14 11 -30 0 -67 59
-44 62 24 1 40 1 40 5 6 3 -19 9 -41 15 -47z m-38 30 c-1 -36 -34 -46 -34 -10
0 26 7 37 24 37 7 0 11 -12 10 -27z m-74 -28 c0 -23 -24 -45 -49 -45 -15 0
-14 57 2 63 31 13 47 7 47 -18z m-1140 -31 c0 -33 -2 -35 -27 -32 -47 5 -45
68 2 68 22 0 25 -4 25 -36z m942 8 c-2 -18 2 -35 12 -45 20 -20 20 -26 0 -48
-22 -25 -27 -99 -8 -120 10 -11 12 -19 5 -24 -16 -9 -13 -64 3 -80 7 -8 18
-11 22 -7 5 4 -2 -6 -16 -21 -21 -25 -24 -36 -22 -94 3 -69 12 -89 47 -103 18
-8 17 -9 -6 -9 -41 -1 -54 -58 -22 -93 20 -22 19 -24 -34 -32 -42 -6 -59 6
-27 18 26 10 15 78 -16 93 -16 8 -19 13 -9 13 32 0 50 35 53 101 2 50 -1 66
-16 81 -11 11 -16 24 -11 31 10 16 33 80 25 73 -3 -3 -11 -1 -18 5 -11 9 -11
15 1 32 23 32 19 103 -6 128 -19 19 -20 22 -4 39 9 10 15 29 14 42 -4 27 7 48
25 48 8 0 11 -10 8 -28z m76 -4 c-2 -28 -7 -33 -28 -33 -16 0 -26 6 -28 18 -6
30 6 47 33 47 24 0 26 -3 23 -32z m-897 12 c11 -6 19 -21 19 -35 0 -21 -5 -25
-30 -25 -26 0 -30 4 -30 28 0 42 9 49 41 32z m687 -24 c-1 -21 5 -40 16 -52
18 -17 18 -18 -2 -35 -31 -24 -40 -94 -17 -119 16 -18 17 -23 4 -46 -12 -23
-11 -30 4 -56 15 -26 15 -31 2 -44 -8 -9 -15 -23 -16 -32 0 -9 -3 -36 -5 -59
-5 -46 17 -93 43 -93 11 0 9 -5 -7 -18 -31 -25 -33 -70 -3 -98 l24 -22 -51 0
c-45 -1 -51 1 -44 16 25 60 13 86 -44 94 -26 4 -36 0 -45 -16 -18 -34 -18 -49
2 -76 18 -25 18 -26 -4 -54 -18 -23 -23 -25 -28 -12 -4 9 -19 21 -34 27 -26
10 -27 12 -11 23 24 17 34 72 18 91 -18 22 -82 19 -97 -4 -16 -26 -2 -73 25
-87 31 -15 38 -24 14 -18 -43 12 -71 -68 -37 -106 13 -15 10 -16 -36 -17 -49
-1 -50 0 -33 19 28 30 27 74 -2 97 l-25 20 21 11 c30 16 25 80 -9 96 -23 12
-23 12 -2 19 12 3 25 14 29 23 14 29 7 131 -11 152 -13 16 -14 20 -1 31 16 13
19 85 3 94 -7 5 -6 12 4 23 20 25 22 98 2 129 -14 21 -15 29 -5 49 7 12 10 34
8 48 -5 23 -2 26 25 26 27 0 29 -2 24 -27 -4 -20 1 -35 15 -50 l21 -22 -23
-19 c-27 -22 -32 -85 -11 -126 11 -20 12 -29 3 -38 -17 -17 -15 -64 4 -82 14
-14 14 -18 0 -38 -22 -31 -22 -135 1 -160 21 -23 55 -23 83 0 30 25 35 98 9
148 -17 34 -17 40 -4 54 17 19 19 53 5 81 -8 14 -7 24 2 38 20 28 14 109 -8
126 -10 7 -23 11 -29 8 -5 -3 3 6 19 19 24 21 27 29 21 56 -6 31 -5 32 25 32
27 0 31 -3 25 -17 -12 -28 -8 -54 11 -67 16 -12 16 -14 -4 -34 -27 -27 -31
-112 -7 -132 14 -11 14 -15 1 -29 -17 -18 -15 -63 3 -85 10 -12 9 -20 -4 -39
-11 -18 -15 -43 -13 -88 3 -56 6 -65 29 -78 22 -12 29 -12 55 0 27 13 29 18
32 83 2 53 -1 72 -14 87 -16 18 -16 20 -1 37 19 21 22 73 6 89 -8 8 -6 18 5
36 25 38 6 137 -27 137 -7 0 -8 3 -2 8 27 20 34 39 25 70 -8 31 -7 32 21 32
27 0 29 -3 27 -34z m82 -7 c0 -26 -3 -29 -30 -29 -27 0 -30 3 -30 29 0 23 5
30 23 33 31 6 37 1 37 -33z m-615 23 c6 -4 11 -20 12 -35 1 -26 -2 -28 -31
-25 -24 2 -32 8 -34 27 -5 32 27 52 53 33z m76 -6 c1 -6 0 -19 -1 -29 -1 -10
6 -27 16 -38 17 -18 17 -20 -1 -33 -23 -17 -30 -105 -11 -132 10 -13 10 -24 2
-45 -7 -21 -7 -38 3 -64 10 -28 10 -39 1 -51 -7 -8 -14 -40 -16 -71 -4 -63 14
-103 44 -103 12 0 10 -4 -8 -13 -30 -15 -39 -66 -16 -90 23 -22 21 -24 -26
-22 -62 3 -63 3 -45 23 23 25 21 68 -2 89 -19 16 -19 17 3 34 32 25 36 124 7
156 -17 18 -18 23 -6 33 20 16 23 72 6 86 -13 10 -13 15 2 38 21 32 17 114 -7
131 -20 15 -21 34 0 42 11 4 14 15 11 38 -4 29 -2 33 19 33 13 0 25 -6 25 -12z
m389 -22 c0 -33 -2 -35 -27 -32 -50 6 -41 67 10 68 13 0 17 -8 17 -36z m-1035
-35 c0 -41 -4 -54 -15 -54 -16 0 -27 73 -16 102 13 33 31 5 31 -48z m735 31
c0 -28 -3 -30 -35 -30 -32 0 -35 2 -35 30 0 28 3 30 35 30 32 0 35 -2 35 -30z
m150 0 c0 -27 -3 -30 -30 -30 -27 0 -30 3 -30 30 0 27 3 30 30 30 27 0 30 -3
30 -30z m705 20 c3 -5 -1 -10 -9 -10 -9 0 -16 -5 -16 -11 0 -5 5 -7 10 -4 6 4
10 -12 10 -39 0 -34 -4 -46 -15 -46 -12 0 -15 13 -15 60 0 46 3 60 14 60 8 0
18 -4 21 -10z m-1517 -28 c2 -7 -3 -12 -12 -12 -9 0 -16 7 -16 16 0 17 22 14
28 -4z m1442 -1 c0 -12 -28 -22 -34 -12 -3 5 -3 11 1 15 9 9 33 7 33 -3z
m-1475 -40 c-10 -16 -25 -3 -25 22 0 20 1 20 16 5 9 -9 13 -21 9 -27z m1495 7
c0 -16 -3 -19 -11 -11 -6 6 -8 16 -5 22 11 17 16 13 16 -11z m-102 -59 c-3
-40 -6 -44 -30 -47 -27 -3 -28 -2 -28 47 0 44 3 50 23 53 32 6 39 -4 35 -53z
m-1250 -1 c3 -47 3 -48 -27 -48 -26 0 -31 4 -37 35 -9 49 0 67 33 63 26 -3 28
-7 31 -50z m-108 12 c0 -20 -5 -30 -15 -30 -15 0 -21 40 -8 53 14 15 23 6 23
-23z m204 20 c20 -7 26 -17 26 -39 0 -47 -10 -61 -41 -61 -28 0 -29 2 -29 48
0 42 5 62 16 62 1 0 14 -4 28 -10z m1041 -45 c0 -49 -1 -50 -32 -53 l-33 -3 0
50 c0 39 4 51 18 54 40 11 47 3 47 -48z m186 28 c-10 -38 -29 -41 -23 -3 2 16
10 30 17 30 9 0 11 -8 6 -27z m-321 -43 c0 -44 -3 -50 -24 -56 -36 -9 -46 2
-46 51 0 45 7 53 48 54 20 1 22 -4 22 -49z m-600 -16 l0 -55 -32 3 c-32 3 -33
4 -36 56 l-3 52 35 0 36 0 0 -56z m150 1 l0 -55 -35 0 -35 0 0 55 0 55 35 0
35 0 0 -55z m158 -3 l3 -53 -38 3 c-36 3 -38 5 -41 42 -5 56 3 68 40 64 32 -3
33 -4 36 -56z m150 6 l-3 -53 -35 0 c-33 0 -35 2 -38 39 -5 55 2 66 43 66 l36
0 -3 -52z m-928 -35 c0 -21 -16 -15 -29 11 -8 13 -10 30 -6 36 6 9 12 6 21
-11 7 -13 13 -30 14 -36z m-112 15 c-2 -13 -7 -23 -13 -23 -5 0 -11 10 -13 23
-2 15 2 22 13 22 11 0 15 -7 13 -22z m1582 2 c0 -11 -7 -20 -15 -20 -8 0 -15
9 -15 20 0 11 7 20 15 20 8 0 15 -9 15 -20z m-1365 -52 c-11 -17 -15 -18 -15
-6 0 8 -7 21 -15 28 -11 9 -12 15 -2 25 10 11 15 10 30 -6 16 -18 17 -21 2
-41z m1146 31 c-12 -41 -12 -71 -1 -83 8 -11 8 -20 1 -35 -6 -11 -11 -30 -12
-43 0 -14 -3 -17 -6 -8 -12 37 -27 59 -37 54 -6 -3 -2 2 9 11 21 17 27 49 13
77 -4 9 -5 24 -2 33 8 20 41 15 35 -6z m-1325 -46 c13 -5 13 -8 0 -22 -7 -9
-16 -25 -19 -36 -4 -12 -5 -7 -4 11 1 17 -4 38 -11 47 -11 13 -11 19 0 37 13
21 13 20 16 -5 2 -14 10 -29 18 -32z m34 32 c0 -16 -6 -25 -15 -25 -9 0 -15 9
-15 25 0 16 6 25 15 25 9 0 15 -9 15 -25z m1440 5 c0 -11 -7 -20 -15 -20 -8 0
-15 9 -15 20 0 11 7 20 15 20 8 0 15 -9 15 -20z m-1342 -16 c15 -27 3 -55 -22
-52 -30 4 -37 68 -7 68 11 0 24 -7 29 -16z m1262 -13 c0 -23 -5 -30 -25 -33
-29 -6 -35 -2 -35 27 0 28 8 35 37 35 19 0 23 -5 23 -29z m-1334 1 c-3 -5 1
-20 9 -35 18 -35 7 -42 -17 -11 -16 20 -18 28 -8 39 13 16 25 21 16 7z m196
-16 c7 -34 -5 -48 -33 -44 -19 2 -25 10 -27 36 -3 30 -1 32 26 32 23 0 31 -5
34 -24z m1018 -5 c0 -21 -6 -30 -22 -34 -28 -8 -38 -1 -38 27 0 29 7 36 37 36
19 0 23 -5 23 -29z m-1312 -75 c-2 -55 -6 -71 -18 -71 -11 0 -16 15 -18 64 -4
75 1 93 23 85 13 -5 15 -20 13 -78z m1180 52 c-2 -27 -8 -34 -29 -36 -21 -2
-27 2 -31 20 -7 37 1 48 33 48 28 0 30 -2 27 -32z m408 -25 c2 -67 -5 -103
-22 -103 -11 0 -14 18 -14 73 0 41 3 77 7 81 16 16 28 -4 29 -51z m-1011 7 c0
-25 -5 -36 -18 -38 -27 -5 -47 16 -47 50 0 27 2 29 33 26 29 -3 32 -6 32 -38z
m153 3 c-3 -35 -6 -38 -33 -38 -24 0 -31 5 -33 23 -6 38 5 52 38 52 30 0 31
-2 28 -37z m157 17 c11 -35 -3 -60 -36 -60 -27 0 -29 2 -29 40 0 38 2 40 29
40 21 0 32 -6 36 -20z m148 -7 c7 -39 -2 -55 -32 -51 -22 3 -26 8 -29 41 -3
35 -2 37 26 37 24 0 31 -5 35 -27z m-819 -8 c16 -24 15 -26 -5 -48 -12 -12
-19 -17 -16 -11 4 6 -2 19 -11 30 -16 16 -16 20 -2 35 8 10 16 18 16 18 1 1 9
-10 18 -24z m-146 -78 c2 -55 -1 -87 -8 -87 -6 0 -10 28 -10 68 0 37 -3 78 -7
91 -4 18 -2 22 8 19 10 -3 15 -28 17 -91z m1438 77 c-3 -9 -6 -49 -6 -90 0
-59 -3 -74 -15 -74 -12 0 -15 15 -15 78 0 47 5 83 12 90 17 17 31 15 24 -4z
m-1352 -30 c12 -5 16 -21 16 -75 0 -65 -1 -69 -23 -69 -35 0 -47 19 -47 75 0
64 16 84 54 69z m1281 -69 l0 -70 -30 0 -30 0 -3 67 c-2 57 0 67 15 71 43 12
48 5 48 -68z m-131 49 c12 -5 16 -21 16 -75 0 -64 -1 -69 -24 -75 -38 -9 -46
2 -46 71 0 50 4 66 18 74 21 13 17 12 36 5z m-1006 -58 c5 -71 -4 -96 -31 -96
-13 0 -28 5 -35 12 -13 13 -17 120 -5 132 4 4 21 6 38 4 28 -3 30 -6 33 -52z
m890 -29 c3 -67 -9 -89 -47 -85 -24 3 -26 7 -29 62 -4 78 1 88 40 84 33 -3 33
-4 36 -61z m-608 -27 l0 -70 -35 0 -35 0 0 70 0 70 35 0 35 0 0 -70z m150 0
l0 -70 -35 0 -35 0 0 63 c0 35 3 67 7 70 3 4 19 7 35 7 l28 0 0 -70z m155 0
l0 -65 -37 -3 -38 -3 0 64 c0 35 3 67 7 71 4 4 21 6 38 4 l30 -3 0 -65z m153
3 l-3 -68 -35 0 -35 0 -3 54 c-4 72 1 81 43 81 l36 0 -3 -67z m309 5 c-3 -8
-6 -5 -6 6 -1 11 2 17 5 13 3 -3 4 -12 1 -19z m231 -40 c-4 -41 -28 -50 -28
-10 0 16 3 32 7 35 15 16 24 5 21 -25z m-1508 -48 c0 -19 -5 -30 -14 -30 -10
0 -14 10 -14 30 1 18 6 30 15 30 8 0 13 -12 13 -30z m1432 5 c-6 -31 -20 -42
-28 -21 -8 21 2 46 19 46 10 0 13 -8 9 -25z m-74 -19 c4 -20 -21 -46 -45 -46
-14 0 -19 51 -6 64 13 13 48 1 51 -18z m-120 -33 c-2 -22 -9 -29 -30 -31 -25
-3 -28 0 -28 27 0 28 3 31 31 31 27 0 30 -3 27 -27z m-894 11 c10 -4 16 -18
16 -35 0 -26 -4 -29 -30 -29 -23 0 -31 5 -36 24 -10 40 10 56 50 40z m764 -26
c-2 -28 -8 -34 -31 -36 -32 -4 -44 16 -27 47 6 13 21 21 36 21 22 0 25 -4 22
-32z m-1228 -29 c0 -67 11 -84 72 -115 275 -139 1239 -133 1516 10 44 23 62
53 62 108 0 27 3 48 8 48 15 0 71 -40 80 -57 5 -10 8 -53 8 -95 -1 -70 -3 -79
-30 -107 -35 -36 -96 -63 -218 -96 -190 -51 -292 -60 -683 -60 -321 1 -375 3
-495 23 -171 27 -315 72 -372 115 l-43 33 -2 80 c-3 104 2 121 40 144 49 31
57 26 57 -31z m630 12 c0 -35 -12 -45 -46 -37 -19 5 -24 13 -24 36 0 28 3 30
35 30 32 0 35 -2 35 -29z m148 -3 c-3 -29 -6 -33 -33 -33 -27 0 -30 4 -33 33
-3 31 -2 32 33 32 35 0 36 -1 33 -32z m159 16 c9 -24 -10 -49 -41 -52 -24 -3
-26 0 -26 32 0 33 2 36 30 36 19 0 33 -6 37 -16z m148 -11 c-8 -33 -6 -31 -25
-33 -32 -5 -40 1 -40 30 0 28 3 30 36 30 34 0 36 -1 29 -27z m-956 -18 c97
-34 270 -62 465 -75 88 -5 165 -10 173 -10 8 0 13 -13 13 -37 l0 -36 -141 7
c-233 11 -431 46 -530 95 -44 21 -55 31 -57 54 -2 15 -2 27 1 27 2 0 36 -11
76 -25z m1466 -2 c0 -22 -9 -33 -42 -51 -70 -38 -348 -89 -508 -92 -33 -1 -87
-2 -120 -3 l-60 -2 -3 33 c-3 32 -3 32 42 32 43 0 46 -2 46 -26 0 -22 3 -25
32 -22 25 2 34 9 38 28 6 24 10 25 153 42 173 19 283 40 352 67 66 26 71 26
70 -6z m24 -37 c-9 -8 -10 -7 -5 7 3 10 7 26 7 35 1 9 4 6 6 -7 3 -13 -1 -28
-8 -35z m-1556 -16 c15 -12 27 -19 27 -15 0 3 10 -1 23 -8 21 -13 39 -19 143
-46 50 -13 156 -28 217 -30 15 -1 27 -5 27 -9 0 -5 -48 -3 -107 5 -198 23
-273 41 -323 78 -38 28 -50 44 -49 65 0 12 2 12 7 -2 4 -9 19 -26 35 -38z
m404 14 c-3 -3 -12 -4 -19 -1 -8 3 -5 6 6 6 11 1 17 -2 13 -5z m1103 -34 c0
-5 -16 -17 -36 -25 -43 -18 -54 -19 -54 -5 0 6 8 10 18 10 9 0 28 7 42 14 14
8 26 14 28 15 1 1 2 -3 2 -9z m-140 -45 c0 -11 -10 -15 -37 -14 -28 1 -31 3
-13 6 14 3 29 9 35 14 12 12 15 11 15 -6z m40 9 c0 -8 -19 -13 -24 -6 -3 5 1
9 9 9 8 0 15 -2 15 -3z m-168 -35 c-9 -9 -139 -23 -130 -14 7 7 92 22 120 21
10 0 14 -3 10 -7z m-165 -15 c-3 -3 -12 -4 -19 -1 -8 3 -5 6 6 6 11 1 17 -2
13 -5z m-72 -14 c-27 -12 -43 -12 -25 0 8 5 22 9 30 9 10 0 8 -3 -5 -9z m-448
-6 c-3 -3 -12 -4 -19 -1 -8 3 -5 6 6 6 11 1 17 -2 13 -5z"/>
<path d="M1337 2194 c-4 -4 -42 -6 -84 -5 -189 5 -563 -54 -563 -89 0 -4 11
-12 24 -18 24 -11 46 0 46 22 0 5 -6 2 -13 -9 -10 -13 -16 -15 -21 -6 -11 17
-2 24 31 23 15 0 34 5 41 10 17 15 15 2 -4 -16 -9 -9 -11 -16 -4 -16 6 0 8 -5
5 -10 -4 -6 -2 -9 4 -8 5 2 17 -6 26 -17 9 -11 13 -13 9 -5 -5 12 -4 12 6 3 7
-6 19 -9 28 -5 12 4 14 1 9 -13 -6 -15 -5 -16 7 -6 9 8 16 9 21 2 3 -6 24 -9
46 -7 36 4 39 3 22 -10 -16 -12 -14 -12 15 -3 24 8 37 8 44 1 14 -14 -14 -27
-37 -19 -8 4 -17 1 -21 -4 -4 -7 12 -9 47 -7 30 3 54 9 54 15 0 6 3 15 8 19 4
4 7 2 7 -4 0 -14 21 -12 33 3 5 6 6 2 3 -9 -6 -16 -4 -17 9 -6 11 9 15 9 15 1
0 -7 5 -9 10 -6 6 3 10 1 10 -4 0 -6 -6 -12 -12 -12 -22 -2 65 -18 101 -18 19
-1 31 2 28 6 -7 7 -33 11 -78 12 -33 1 -36 31 -3 31 13 0 26 -5 29 -10 4 -6
12 -7 18 -3 16 10 47 11 41 2 -2 -4 0 -10 6 -14 5 -3 10 -1 10 4 0 6 3 10 8 9
4 0 14 2 22 5 8 3 24 8 35 11 11 2 -14 4 -55 4 -97 0 -393 29 -445 43 -41 11
-65 26 -65 39 0 23 125 46 303 56 64 4 117 10 117 13 0 3 48 5 107 3 99 -3
106 -2 88 12 -20 16 -76 21 -88 10z"/>
<path d="M1658 2182 c-11 -13 -10 -14 7 -5 21 10 305 0 334 -13 9 -4 36 -6 61
-6 41 1 43 0 15 -8 -26 -8 -24 -9 18 -7 26 1 47 -1 47 -5 0 -5 15 -8 33 -8 21
0 41 -8 52 -20 21 -23 44 -28 25 -5 -10 12 -8 13 12 10 64 -12 78 -18 78 -28
0 -17 -38 -39 -52 -31 -6 4 -8 3 -4 -4 9 -15 -2 -20 -60 -27 -27 -4 -57 -9
-68 -12 -12 -3 -17 -1 -14 8 3 8 13 13 22 11 24 -4 99 40 84 49 -6 4 -23 2
-37 -6 -44 -22 -232 -44 -495 -58 -29 -2 -51 -8 -54 -16 -2 -7 2 -12 9 -10 8
1 34 1 58 0 36 -1 42 -4 37 -18 -5 -16 -4 -15 9 1 8 10 12 23 9 27 -3 5 7 4
21 -1 34 -13 55 -13 35 0 -11 8 -7 9 15 4 40 -9 42 -12 14 -23 -19 -8 -14 -10
31 -9 49 1 51 1 20 8 -19 4 -31 8 -26 9 5 0 4 7 -2 14 -8 9 -3 12 20 11 16 0
33 -6 38 -13 5 -9 9 -8 14 5 5 13 9 15 18 6 15 -15 32 -16 23 -2 -3 6 -1 10 4
10 6 0 12 -10 12 -22 1 -17 2 -19 6 -5 6 21 36 25 114 12 69 -12 245 49 233
80 -14 36 -187 77 -394 94 -250 20 -308 20 -322 3z"/>
<path d="M1953 2153 c9 -2 23 -2 30 0 6 3 -1 5 -18 5 -16 0 -22 -2 -12 -5z"/>
<path d="M1090 2140 c-136 -13 -243 -29 -254 -40 -58 -58 992 -82 1293 -29
128 23 117 34 -50 55 -143 18 -832 28 -989 14z m720 -25 c107 -3 213 -9 235
-13 38 -8 37 -8 -35 -16 -116 -13 -230 -19 -410 -20 -186 -1 -512 10 -550 19
-14 4 -43 7 -65 7 -40 0 -40 0 -10 9 17 5 116 12 220 16 105 3 191 6 192 7 3
2 233 -2 423 -9z"/>
<path d="M2292 2091 c2 -7 7 -12 11 -12 12 1 9 15 -3 20 -7 2 -11 -2 -8 -8z"/>
<path d="M680 2065 c13 -16 108 -54 136 -54 11 0 44 -5 73 -10 58 -11 72 -8
53 11 -7 7 -12 8 -12 2 0 -7 -16 -8 -47 -2 -27 5 -57 10 -68 12 -21 3 -62 18
-109 42 -37 18 -42 18 -26 -1z"/>
<path d="M1405 2010 c3 -5 8 -10 11 -10 2 0 4 5 4 10 0 6 -5 10 -11 10 -5 0
-7 -4 -4 -10z"/>
<path d="M1438 2003 c7 -3 16 -2 19 1 4 3 -2 6 -13 5 -11 0 -14 -3 -6 -6z"/>
<path d="M1571 2007 c2 -1 13 -9 23 -17 15 -11 18 -12 12 -1 -7 10 -3 12 14 6
15 -5 20 -4 16 4 -4 6 -21 11 -38 11 -17 0 -29 -1 -27 -3z"/>
<path d="M1090 1985 c-11 -13 -8 -15 20 -15 19 0 31 1 29 3 -2 1 -11 8 -20 15
-13 10 -19 9 -29 -3z"/>
<path d="M1368 1993 c7 -3 16 -2 19 1 4 3 -2 6 -13 5 -11 0 -14 -3 -6 -6z"/>
<path d="M1975 1990 c-4 -6 3 -10 14 -10 25 0 27 6 6 13 -8 4 -17 2 -20 -3z"/>
<path d="M1410 1981 c0 -6 4 -13 10 -16 6 -3 7 1 4 9 -7 18 -14 21 -14 7z"/>
<path d="M1518 1973 c6 -2 18 -2 25 0 6 3 1 5 -13 5 -14 0 -19 -2 -12 -5z"/>
<path d="M1675 1970 c3 -5 11 -10 16 -10 6 0 7 5 4 10 -3 6 -11 10 -16 10 -6
0 -7 -4 -4 -10z"/>
<path d="M1790 1970 c0 -5 7 -7 15 -4 8 4 15 8 15 10 0 2 -7 4 -15 4 -8 0 -15
-4 -15 -10z"/>
<path d="M1308 1963 c7 -3 16 -2 19 1 4 3 -2 6 -13 5 -11 0 -14 -3 -6 -6z"/>
<path d="M650 1960 c0 -6 35 -27 78 -47 63 -30 89 -36 142 -37 36 0 53 -2 38
-4 -16 -2 -28 -10 -28 -17 0 -22 22 -30 34 -12 15 20 163 19 170 0 3 -7 10
-13 17 -13 6 0 9 7 5 15 -6 18 5 20 21 4 7 -7 55 -11 130 -11 149 0 153 0 153
11 0 5 -46 10 -102 10 -151 3 -218 8 -365 30 -139 21 -210 39 -262 65 -19 10
-31 12 -31 6z"/>
<path d="M2367 1956 c-49 -37 -327 -83 -569 -93 -82 -3 -148 -10 -148 -15 0
-4 5 -8 11 -8 6 0 9 -6 6 -13 -4 -10 7 -14 42 -14 25 -1 38 1 29 4 -38 10 -15
18 55 19 39 1 80 5 90 9 10 4 17 3 17 -5 0 -6 -5 -8 -12 -4 -7 4 -8 3 -4 -4 4
-6 14 -8 23 -5 11 4 14 3 9 -5 -4 -7 -4 -12 1 -13 4 0 16 -2 25 -4 9 -2 19 3
22 11 6 15 -14 15 -27 -1 -5 -6 -7 -1 -5 10 2 12 12 20 23 21 11 1 22 2 25 3
15 8 50 6 50 -1 0 -5 7 -2 16 6 8 9 19 14 24 11 14 -8 165 24 236 51 78 29 95
26 29 -6 -58 -28 -51 -38 9 -15 40 15 46 22 46 46 0 33 1 33 -23 15z m-666
-120 c5 3 9 0 9 -5 0 -6 -7 -11 -15 -11 -8 0 -15 8 -14 18 0 10 3 12 6 4 2 -6
9 -10 14 -6z"/>
<path d="M2350 1858 c-25 -12 -39 -23 -32 -25 6 -3 9 -9 6 -15 -4 -6 8 -2 25
8 18 10 37 27 42 37 5 9 8 17 7 16 -2 0 -23 -10 -48 -21z"/>
<path d="M678 1854 c12 -8 20 -19 17 -24 -3 -4 4 -6 15 -3 19 5 18 7 -10 24
-37 23 -53 25 -22 3z"/>
<path d="M1420 1844 c0 -15 2 -16 9 -5 5 8 11 9 15 3 3 -5 25 -7 48 -5 56 7
62 13 12 13 -21 0 -49 3 -61 6 -18 5 -23 2 -23 -12z"/>
<path d="M927 1836 c-4 -10 0 -12 14 -9 10 3 16 9 13 14 -8 13 -21 11 -27 -5z"/>
<path d="M1563 1843 c9 -2 23 -2 30 0 6 3 -1 5 -18 5 -16 0 -22 -2 -12 -5z"/>
<path d="M1616 1842 c-3 -5 1 -9 9 -9 8 0 15 4 15 9 0 4 -4 8 -9 8 -6 0 -12
-4 -15 -8z"/>
<path d="M979 1831 c12 -8 51 -4 51 5 0 2 -15 4 -32 4 -23 0 -29 -3 -19 -9z"/>
<path d="M1060 1831 c0 -5 5 -13 10 -16 6 -3 10 -2 10 4 0 5 -4 13 -10 16 -5
3 -10 2 -10 -4z"/>
<path d="M1790 1820 c-9 -6 -10 -10 -3 -10 6 0 15 5 18 10 8 12 4 12 -15 0z"/>
<path d="M1183 1813 c5 -7 -1 -13 -15 -16 -13 -2 0 -4 27 -4 28 0 41 2 30 5
-11 2 -26 9 -34 16 -11 8 -13 8 -8 -1z"/>
<path d="M1293 1813 c15 -2 39 -2 55 0 15 2 2 4 -28 4 -30 0 -43 -2 -27 -4z"/>
<path d="M1430 1811 c0 -6 4 -12 8 -15 5 -3 9 1 9 9 0 8 -4 15 -9 15 -4 0 -8
-4 -8 -9z"/>
<path d="M1578 1813 c6 -2 18 -2 25 0 6 3 1 5 -13 5 -14 0 -19 -2 -12 -5z"/>
<path d="M1860 1802 c0 -4 10 -9 22 -9 18 -2 20 0 8 7 -18 12 -30 13 -30 2z"/>
<path d="M1250 1796 c0 -2 11 -6 25 -8 13 -3 22 -1 19 3 -5 9 -44 13 -44 5z"/>
<path d="M1335 1790 c-3 -5 1 -10 10 -10 9 0 13 5 10 10 -3 6 -8 10 -10 10 -2
0 -7 -4 -10 -10z"/>
<path d="M1658 1793 c6 -2 18 -2 25 0 6 3 1 5 -13 5 -14 0 -19 -2 -12 -5z"/>
<path d="M1708 1793 c6 -2 18 -2 25 0 6 3 1 5 -13 5 -14 0 -19 -2 -12 -5z"/>
<path d="M2140 1750 c0 -5 5 -10 10 -10 6 0 10 5 10 10 0 6 -4 10 -10 10 -5 0
-10 -4 -10 -10z"/>
<path d="M1006 1743 c-12 -12 -6 -33 9 -33 8 0 15 6 15 14 0 17 -14 28 -24 19z"/>
<path d="M2020 1725 c0 -8 5 -15 10 -15 6 0 10 7 10 15 0 8 -4 15 -10 15 -5 0
-10 -7 -10 -15z"/>
<path d="M1132 1713 c5 -25 28 -28 28 -4 0 12 -6 21 -16 21 -9 0 -14 -7 -12
-17z"/>
<path d="M1882 1713 c5 -25 28 -28 28 -4 0 12 -6 21 -16 21 -9 0 -14 -7 -12
-17z"/>
<path d="M1280 1705 c0 -8 7 -15 15 -15 8 0 15 7 15 15 0 8 -7 15 -15 15 -8 0
-15 -7 -15 -15z"/>
<path d="M1740 1705 c0 -8 7 -15 15 -15 8 0 15 7 15 15 0 8 -7 15 -15 15 -8 0
-15 -7 -15 -15z"/>
<path d="M1430 1705 c0 -8 7 -15 15 -15 8 0 15 7 15 15 0 8 -7 15 -15 15 -8 0
-15 -7 -15 -15z"/>
<path d="M1587 1714 c-13 -13 -7 -24 14 -24 11 0 19 5 17 12 -5 14 -22 21 -31
12z"/>
<path d="M2143 1633 c-19 -7 -17 -63 2 -63 10 0 15 11 15 35 0 19 -1 35 -2 34
-2 0 -9 -3 -15 -6z"/>
<path d="M882 1603 c4 -39 28 -42 28 -4 0 21 -5 31 -16 31 -11 0 -14 -8 -12
-27z"/>
<path d="M1000 1586 c0 -26 4 -36 16 -36 11 0 14 8 12 32 -4 46 -28 49 -28 4z"/>
<path d="M2020 1579 c0 -52 24 -48 28 4 2 28 -1 37 -12 37 -12 0 -16 -11 -16
-41z"/>
<path d="M1880 1564 c0 -28 3 -35 18 -32 11 2 18 14 20 36 3 27 0 32 -17 32
-17 0 -21 -6 -21 -36z"/>
<path d="M1278 1555 c3 -24 9 -35 21 -35 12 0 16 9 16 35 0 29 -4 35 -20 35
-18 0 -20 -5 -17 -35z"/>
<path d="M1430 1556 c0 -19 5 -38 11 -41 14 -9 15 -7 22 38 5 32 3 37 -14 37
-15 0 -19 -7 -19 -34z"/>
<path d="M1580 1555 c0 -28 4 -35 20 -35 16 0 20 7 20 35 0 28 -4 35 -20 35
-16 0 -20 -7 -20 -35z"/>
<path d="M1730 1555 c0 -28 4 -35 20 -35 16 0 20 7 20 35 0 28 -4 35 -20 35
-16 0 -20 -7 -20 -35z"/>
<path d="M880 1481 c0 -5 7 -11 15 -15 9 -3 15 0 15 9 0 8 -7 15 -15 15 -8 0
-15 -4 -15 -9z"/>
<path d="M2135 1480 c-3 -5 1 -10 9 -10 9 0 16 5 16 10 0 6 -4 10 -9 10 -6 0
-13 -4 -16 -10z"/>
<path d="M1000 1455 c0 -8 7 -15 15 -15 8 0 15 7 15 15 0 8 -7 15 -15 15 -8 0
-15 -7 -15 -15z"/>
<path d="M2020 1455 c0 -8 7 -15 15 -15 8 0 15 7 15 15 0 8 -7 15 -15 15 -8 0
-15 -7 -15 -15z"/>
<path d="M1880 1435 c0 -8 7 -15 15 -15 8 0 15 7 15 15 0 8 -7 15 -15 15 -8 0
-15 -7 -15 -15z"/>
<path d="M2311 1424 c0 -11 3 -14 6 -6 3 7 2 16 -1 19 -3 4 -6 -2 -5 -13z"/>
<path d="M1280 1420 c0 -11 7 -20 15 -20 8 0 15 9 15 20 0 11 -7 20 -15 20 -8
0 -15 -9 -15 -20z"/>
<path d="M1430 1420 c0 -11 7 -20 15 -20 8 0 15 9 15 20 0 11 -7 20 -15 20 -8
0 -15 -9 -15 -20z"/>
<path d="M1580 1420 c0 -13 7 -20 20 -20 13 0 20 7 20 20 0 13 -7 20 -20 20
-13 0 -20 -7 -20 -20z"/>
<path d="M1732 1423 c5 -26 38 -29 38 -4 0 15 -6 21 -21 21 -14 0 -19 -5 -17
-17z"/>
<path d="M870 1320 c0 -41 3 -50 18 -50 14 0 17 9 17 50 0 41 -3 50 -17 50
-15 0 -18 -9 -18 -50z"/>
<path d="M2145 1368 c-2 -7 -5 -32 -7 -55 -3 -36 -1 -43 14 -43 15 0 18 9 18
55 0 50 -14 75 -25 43z"/>
<path d="M2033 1353 c-16 -6 -18 -113 -3 -113 16 0 22 23 18 72 -2 30 -7 43
-15 41z"/>
<path d="M992 1298 c2 -39 7 -53 18 -53 11 0 15 12 15 50 0 40 -4 50 -18 53
-16 3 -18 -3 -15 -50z"/>
<path d="M1880 1274 c0 -47 3 -55 18 -52 13 2 18 15 20 56 3 47 1 52 -17 52
-19 0 -21 -6 -21 -56z"/>
<path d="M1280 1260 c0 -43 3 -50 20 -50 17 0 20 7 20 50 0 43 -3 50 -20 50
-17 0 -20 -7 -20 -50z"/>
<path d="M1428 1303 c-2 -5 -3 -28 -3 -53 0 -34 4 -45 18 -48 14 -3 17 4 17
36 0 22 3 47 6 56 4 11 0 16 -14 16 -12 0 -22 -3 -24 -7z"/>
<path d="M1582 1258 c2 -39 7 -53 18 -53 11 0 16 14 18 53 3 47 1 52 -18 52
-19 0 -21 -5 -18 -52z"/>
<path d="M1730 1260 c0 -43 3 -50 20 -50 17 0 20 7 20 50 0 43 -3 50 -20 50
-17 0 -20 -7 -20 -50z"/>
<path d="M2140 1155 c0 -9 6 -12 15 -9 8 4 12 10 9 15 -8 14 -24 10 -24 -6z"/>
<path d="M2020 1135 c0 -8 5 -15 10 -15 6 0 10 7 10 15 0 8 -4 15 -10 15 -5 0
-10 -7 -10 -15z"/>
<path d="M1130 1121 c0 -12 6 -21 16 -21 9 0 14 7 12 17 -5 25 -28 28 -28 4z"/>
<path d="M1880 1117 c0 -19 10 -27 26 -20 21 8 17 33 -6 33 -11 0 -20 -6 -20
-13z"/>
<path d="M2363 1084 c1 -29 5 -34 26 -35 22 -2 23 -2 5 -6 -12 -2 -32 -15 -45
-29 -17 -19 -19 -23 -6 -18 9 3 17 10 17 16 0 5 5 6 10 3 6 -3 10 -1 10 4 0 6
9 11 19 11 10 0 22 7 25 16 8 22 -12 57 -30 50 -8 -3 -13 -2 -10 3 3 5 0 11
-8 14 -10 4 -14 -3 -13 -29z m47 -14 c0 -5 -10 -10 -22 -9 -22 0 -22 1 -3 9
11 5 21 9 23 9 1 1 2 -3 2 -9z"/>
<path d="M639 1089 c-17 -17 -19 -23 -8 -30 12 -7 11 -9 -1 -9 -8 -1 -1 -8 15
-17 17 -9 34 -22 38 -29 4 -8 13 -14 19 -14 6 0 3 11 -6 25 -9 13 -16 40 -16
60 0 40 -11 44 -41 14z m31 -19 c0 -5 -4 -10 -10 -10 -5 0 -10 5 -10 10 0 6 5
10 10 10 6 0 10 -4 10 -10z m0 -30 c0 -5 -2 -10 -4 -10 -3 0 -8 5 -11 10 -3 6
-1 10 4 10 6 0 11 -4 11 -10z"/>
<path d="M614 1014 c3 -9 6 -29 6 -45 0 -16 4 -29 10 -29 5 0 7 7 3 16 -5 14
-2 16 23 10 16 -4 41 -8 56 -9 18 -1 24 -5 17 -13 -7 -8 0 -15 22 -23 17 -6
35 -8 40 -5 5 2 50 -6 100 -20 51 -14 95 -23 99 -21 4 2 38 -2 76 -9 76 -16
210 -32 234 -28 45 7 73 4 81 -9 7 -11 9 -10 9 4 0 10 5 15 10 12 6 -4 8 -10
5 -15 -7 -12 38 1 52 15 9 9 -26 13 -150 18 -148 5 -351 32 -435 56 -76 22
-228 85 -235 98 -11 18 -30 16 -23 -3z"/>
<path d="M2320 974 c-58 -23 -132 -47 -163 -54 -53 -12 -56 -14 -37 -27 25
-18 26 -55 2 -76 -24 -22 -45 -21 -65 1 -23 25 -21 48 5 66 27 19 33 19 -88 1
-54 -8 -155 -18 -224 -21 -69 -3 -134 -8 -145 -9 -11 -2 -28 -4 -38 -4 -10 -1
-15 -6 -12 -11 4 -6 11 -8 16 -5 5 4 9 1 9 -4 0 -6 10 -11 23 -10 21 0 21 1 2
9 -15 6 -8 8 25 8 25 0 48 -5 52 -12 6 -8 8 -7 8 2 0 6 5 12 11 12 5 0 7 -4 4
-10 -3 -5 -2 -10 4 -10 5 0 13 5 16 10 10 15 52 12 59 -5 3 -8 11 -15 18 -15
9 0 9 3 -2 10 -13 9 -13 11 0 20 20 13 39 12 20 -1 -12 -9 -11 -10 5 -4 45 15
195 26 195 14 0 -5 -26 -10 -57 -12 l-58 -3 65 -3 c53 -3 59 -5 35 -11 l-30
-8 33 -1 c18 0 40 -7 47 -15 12 -12 8 -15 -28 -20 -37 -5 -156 -9 -254 -9 -18
0 -33 -2 -33 -6 0 -9 -153 -6 -169 3 -11 7 -11 10 0 17 10 6 10 9 2 9 -26 0
-22 -20 9 -42 36 -25 37 -25 49 -6 5 8 9 9 9 2 0 -13 44 -11 250 7 230 20 434
73 504 131 46 38 39 50 -8 14 -19 -14 -39 -26 -45 -26 -6 0 -11 -4 -11 -10 0
-5 -7 -7 -15 -4 -8 4 -21 2 -28 -3 -13 -11 -109 -43 -127 -43 -6 0 -8 5 -4 12
10 15 11 67 2 61 -5 -2 -8 0 -8 5 0 5 35 16 78 25 42 10 101 28 130 42 30 14
55 25 56 25 10 0 -1 -37 -13 -47 -18 -14 -3 -17 17 -4 8 5 12 23 10 48 l-3 39
-105 -42z"/>
<path d="M2375 948 c-11 -6 -49 -22 -85 -34 -36 -13 -55 -23 -43 -23 27 -1
122 33 149 54 23 17 8 19 -21 3z"/>
<path d="M690 920 c14 -10 42 -26 63 -34 35 -14 38 -13 48 6 9 17 8 19 -10 13
-12 -3 -40 2 -67 14 -58 26 -66 26 -34 1z"/>
<path d="M620 919 c0 -5 5 -7 11 -4 5 4 18 0 27 -8 9 -9 39 -25 66 -37 27 -11
46 -23 43 -26 -3 -3 -32 8 -66 25 -67 34 -79 38 -62 17 19 -22 120 -63 223
-90 161 -42 538 -73 538 -45 0 5 -14 6 -30 2 -35 -7 -71 18 -65 46 2 10 -3 18
-11 18 -10 0 -11 -4 -3 -14 6 -7 8 -13 5 -13 -4 0 -2 -9 4 -20 10 -18 7 -19
-27 -18 -21 1 -43 8 -49 16 -6 9 -50 19 -120 27 -94 12 -227 36 -282 51 -9 2
1 -4 22 -15 24 -12 91 -25 175 -36 185 -22 201 -25 201 -34 0 -7 -73 1 -260
28 -99 15 -182 41 -176 56 2 7 -27 27 -70 48 -79 39 -94 43 -94 26z"/>
<path d="M2325 898 c-55 -21 -61 -25 -53 -33 6 -7 118 41 118 49 0 9 -9 6 -65
-16z"/>
<path d="M884 875 c77 -27 86 -29 86 -16 0 4 -24 14 -52 20 -98 22 -103 21
-34 -4z"/>
<path d="M2075 873 c-21 -20 -15 -47 11 -51 25 -4 47 19 38 41 -9 23 -31 28
-49 10z"/>
<path d="M810 872 c0 -8 117 -42 142 -42 10 1 -127 49 -139 50 -2 0 -3 -4 -3
-8z"/>
<path d="M989 849 c-9 -6 2 -9 37 -9 28 0 67 -2 85 -5 25 -4 29 -3 14 3 -32
14 -120 21 -136 11z"/>
<path d="M1486 838 c3 -4 -1 -8 -9 -8 -7 0 -14 -6 -14 -13 0 -8 6 -14 14 -14
7 0 11 2 8 5 -7 7 19 29 41 35 10 3 5 5 -13 4 -17 -1 -29 -5 -27 -9z"/>
<path d="M1000 824 c8 -2 56 -8 105 -13 50 -5 99 -12 110 -16 14 -5 16 -4 6 3
-11 8 -10 12 5 21 11 6 14 11 9 11 -6 0 -15 -4 -20 -9 -6 -5 -41 -5 -80 0 -69
8 -164 10 -135 3z"/>
<path d="M1632 818 c-5 -8 -6 -22 -1 -33 7 -18 8 -17 8 7 1 16 8 28 19 31 14
4 14 5 1 6 -9 0 -21 -5 -27 -11z"/>
<path d="M1425 810 c3 -5 8 -10 11 -10 2 0 4 5 4 10 0 6 -5 10 -11 10 -5 0 -7
-4 -4 -10z"/>
<path d="M1364 798 c-3 -4 5 -8 18 -8 19 0 20 -2 8 -11 -12 -8 -12 -10 -1 -7
22 6 21 34 -1 34 -11 0 -22 -4 -24 -8z"/>
<path d="M1662 793 c2 -9 8 -18 15 -20 7 -3 9 3 6 16 -6 25 -26 28 -21 4z"/>
<path d="M1734 799 c-2 -5 -11 -6 -19 -2 -8 3 -15 1 -15 -4 0 -5 15 -8 33 -8
19 0 34 5 34 11 0 12 -25 15 -33 3z"/>
<path d="M2000 790 c-21 -7 -21 -8 -5 -9 11 0 27 4 35 9 18 11 5 11 -30 0z"/>
<path d="M1419 783 c0 -4 -2 -16 -4 -26 -3 -15 -1 -16 11 -6 7 6 11 16 7 21
-4 7 6 9 26 6 18 -3 34 -2 36 2 2 3 -14 7 -36 8 -21 2 -39 -1 -40 -5z"/>
<path d="M1518 783 c7 -3 16 -2 19 1 4 3 -2 6 -13 5 -11 0 -14 -3 -6 -6z"/>
<path d="M1453 750 c-1 -11 3 -20 8 -20 6 0 7 5 4 10 -9 14 19 12 33 -2 7 -7
12 -8 12 -2 0 6 -11 16 -25 22 -33 15 -30 16 -32 -8z"/>
<path d="M1520 766 c0 -2 7 -9 15 -16 9 -7 15 -8 15 -2 0 5 -7 12 -15 16 -8 3
-15 4 -15 2z"/>
<path d="M1280 1100 c0 -11 7 -20 15 -20 8 0 15 9 15 20 0 11 -7 20 -15 20 -8
0 -15 -9 -15 -20z"/>
<path d="M1443 1113 c-18 -7 -16 -33 2 -33 8 0 15 9 15 20 0 11 -1 20 -2 19
-2 0 -9 -3 -15 -6z"/>
<path d="M1580 1095 c0 -8 9 -15 20 -15 11 0 20 7 20 15 0 8 -9 15 -20 15 -11
0 -20 -7 -20 -15z"/>
<path d="M1740 1100 c0 -11 7 -20 15 -20 8 0 15 9 15 20 0 11 -7 20 -15 20 -8
0 -15 -9 -15 -20z"/>
<path d="M760 1081 c0 -5 7 -14 15 -21 8 -7 15 -9 15 -6 0 4 9 2 21 -4 11 -6
28 -13 37 -15 9 -2 60 -14 112 -25 107 -25 132 -29 210 -34 30 -2 55 -5 55 -6
0 -1 32 -2 72 -3 47 0 70 -4 66 -11 -3 -6 0 -5 8 2 7 6 24 12 38 11 24 0 24
-1 6 -9 -17 -7 -14 -9 13 -9 27 -1 33 3 30 17 -3 14 -15 17 -68 19 -225 9
-435 38 -554 79 -82 28 -76 26 -76 15z"/>
<path d="M2198 1065 c-69 -24 -296 -65 -360 -65 -65 0 -98 -11 -98 -32 0 -17
3 -18 15 -8 8 7 45 14 83 15 37 1 74 4 82 8 8 3 22 5 30 6 28 0 95 10 149 20
29 6 56 11 58 11 2 0 2 3 0 8 -3 4 9 7 27 8 40 0 96 25 96 41 0 16 -2 16 -82
-12z"/>
<path d="M1580 965 c0 -10 10 -15 30 -15 20 0 30 5 30 15 0 10 -10 15 -30 15
-20 0 -30 -5 -30 -15z"/>
<path d="M885 1751 c-6 -11 9 -23 19 -14 9 9 7 23 -3 23 -6 0 -12 -4 -16 -9z"/>
<path d="M1106 1624 c-21 -20 -21 -97 -1 -114 13 -11 13 -15 0 -33 -20 -28
-19 -62 1 -82 15 -15 15 -18 -3 -38 -16 -18 -20 -33 -17 -81 4 -68 23 -96 65
-96 41 0 61 35 58 102 -1 29 -7 62 -14 73 -10 17 -10 24 0 38 9 13 10 29 3 63
-7 32 -7 49 1 57 18 18 13 92 -7 110 -23 21 -66 22 -86 1z m72 -61 c3 -53 3
-53 -26 -53 -31 0 -42 14 -42 55 0 42 11 56 39 53 24 -3 26 -7 29 -55z m2
-129 c0 -33 -2 -35 -27 -32 -23 2 -29 8 -31 36 -3 30 -1 32 27 32 29 0 31 -3
31 -36z m3 -96 c2 -7 4 -37 3 -67 -1 -61 -21 -85 -53 -65 -18 11 -31 100 -19
130 7 17 62 18 69 2z"/>
<path d="M1130 1566 c0 -28 4 -36 18 -36 24 0 23 64 -1 68 -13 3 -17 -4 -17
-32z"/>
<path d="M1130 1435 c0 -8 7 -15 15 -15 8 0 15 7 15 15 0 8 -7 15 -15 15 -8 0
-15 -7 -15 -15z"/>
<path d="M1130 1276 c0 -50 2 -56 21 -56 18 0 20 5 17 52 -2 41 -7 54 -20 56
-15 3 -18 -5 -18 -52z"/>
<path d="M704 1260 c-15 -15 -4 -69 16 -80 20 -11 34 1 42 36 10 41 -30 72
-58 44z m44 -38 c2 -24 -1 -32 -12 -32 -12 0 -16 10 -16 36 0 45 24 42 28 -4z"/>
<path d="M862 1198 c-7 -7 -12 -27 -12 -45 0 -26 5 -34 24 -39 44 -11 61 -1
64 34 2 18 -2 40 -9 48 -14 17 -51 18 -67 2z m56 -47 c3 -28 1 -33 -13 -27 -9
3 -21 6 -26 6 -5 0 -9 14 -9 31 0 26 3 30 23 27 17 -2 23 -11 25 -37z"/>
<path d="M880 1155 c0 -8 7 -15 15 -15 8 0 15 7 15 15 0 8 -7 15 -15 15 -8 0
-15 -7 -15 -15z"/>
<path d="M978 1172 c-16 -19 -10 -73 9 -87 8 -6 28 -9 44 -7 23 3 30 10 35 38
4 20 2 40 -5 48 -17 20 -69 25 -83 8z m53 -12 c5 0 9 -13 9 -30 0 -25 -4 -30
-25 -30 -18 0 -26 7 -31 24 -7 30 3 49 23 42 8 -3 19 -6 24 -6z"/>
<path d="M1000 1136 c0 -9 7 -16 16 -16 17 0 14 22 -4 28 -7 2 -12 -3 -12 -12z"/>
<path d="M915 560 c3 -5 8 -10 11 -10 2 0 4 5 4 10 0 6 -5 10 -11 10 -5 0 -7
-4 -4 -10z"/>
<path d="M2130 551 c0 -10 -7 -24 -15 -31 -14 -12 -14 -15 1 -31 22 -25 56
-24 79 1 18 20 18 21 -1 35 -10 8 -27 15 -36 15 -21 0 -24 16 -5 23 7 3 5 6
-5 6 -11 1 -18 -6 -18 -18z m48 -48 c-10 -2 -28 -2 -40 0 -13 2 -5 4 17 4 22
1 32 -1 23 -4z"/>
<path d="M881 548 c-1 -9 -8 -21 -16 -26 -25 -13 -7 -41 31 -48 34 -6 64 7 64
29 0 14 -32 36 -52 37 -9 0 -19 6 -21 13 -3 7 -6 5 -6 -5z m47 -45 c-10 -2
-28 -2 -40 0 -13 2 -5 4 17 4 22 1 32 -1 23 -4z"/>
<path d="M415 2730 c-17 -8 -17 -9 7 -7 15 1 24 5 22 9 -3 4 -6 8 -7 7 -1 0
-11 -4 -22 -9z"/>
<path d="M2564 2715 c-20 -15 -49 -20 -41 -7 3 4 -6 8 -20 9 -24 1 -24 0 6
-18 17 -10 38 -19 46 -19 8 0 15 -4 15 -10 0 -5 8 -10 18 -10 15 0 15 2 2 11
-11 8 -4 9 28 7 23 -2 42 0 42 4 0 5 -26 8 -57 8 l-58 0 25 20 c14 11 22 20
19 20 -3 0 -14 -7 -25 -15z"/>
<path d="M412 2690 c-12 -12 -22 -24 -22 -27 0 -4 11 4 25 17 23 22 29 30 22
30 -2 0 -13 -9 -25 -20z"/>
<path d="M2675 2670 c-3 -5 -1 -10 4 -10 6 0 11 5 11 10 0 6 -2 10 -4 10 -3 0
-8 -4 -11 -10z"/>
<path d="M341 2646 c2 -2 20 -6 39 -10 25 -4 31 -3 20 4 -14 9 -69 15 -59 6z"/>
<path d="M360 2619 c0 -5 5 -7 10 -4 6 3 10 8 10 11 0 2 -4 4 -10 4 -5 0 -10
-5 -10 -11z"/>
<path d="M310 2615 c0 -7 30 -13 34 -7 3 4 -4 9 -15 9 -10 1 -19 0 -19 -2z"/>
<path d="M2645 2584 c37 -48 83 -151 91 -201 6 -39 9 -43 33 -42 15 1 19 3 10
6 -10 2 -19 13 -22 24 -4 16 0 19 31 21 l37 1 -35 4 c-63 8 -58 23 8 23 52 0
60 -2 55 -16 -5 -12 -7 -13 -14 -2 -6 9 -8 6 -6 -9 0 -12 5 -19 9 -17 4 3 8
-2 8 -11 0 -9 -4 -14 -9 -10 -5 3 -12 1 -16 -5 -4 -6 5 -10 22 -10 27 -1 28
-1 6 -13 -16 -9 -20 -16 -13 -27 7 -10 10 -11 10 -2 0 6 4 12 9 12 5 0 7 -9 4
-19 -3 -11 -11 -17 -18 -15 -7 3 -16 0 -21 -7 -4 -8 -3 -10 5 -5 6 4 18 0 27
-8 8 -9 11 -16 5 -16 -13 0 -10 -22 4 -32 6 -5 6 -8 -1 -8 -12 0 -11 -41 2
-62 5 -9 1 -8 -11 2 -17 14 -18 14 -6 -7 6 -13 9 -23 5 -23 -3 0 -1 -7 6 -15
10 -11 9 -18 -4 -30 -17 -18 -20 -26 -8 -24 4 1 14 0 22 -2 8 -1 -16 -5 -55
-9 l-70 -6 73 -2 73 -2 -3 43 c-2 28 -7 41 -16 39 -8 -1 -11 2 -7 8 3 6 11 7
17 4 14 -9 4 205 -13 286 -6 30 -28 92 -49 137 l-38 81 -81 0 -82 0 26 -34z
m131 -7 c9 -16 12 -27 7 -24 -5 3 -15 2 -23 -4 -11 -6 -5 -9 20 -10 24 -1 28
-3 13 -6 -13 -2 -23 -8 -23 -13 0 -5 6 -7 13 -5 19 7 39 -10 35 -31 -3 -15
-12 -19 -43 -20 -32 0 -42 4 -52 24 -16 30 -16 35 0 27 6 -4 1 3 -13 14 -14
11 -21 21 -17 21 4 0 -4 11 -18 24 -30 28 -22 33 43 33 38 -1 45 -4 58 -30z
m74 -136 c0 -8 -110 -4 -119 5 -2 2 23 4 57 4 34 0 62 -4 62 -9z"/>
<path d="M2768 2483 c7 -3 16 -2 19 1 4 3 -2 6 -13 5 -11 0 -14 -3 -6 -6z"/>
<path d="M295 2561 c-3 -5 -2 -12 3 -15 5 -3 9 1 9 9 0 17 -3 19 -12 6z"/>
<path d="M174 2428 c-17 -53 -22 -234 -23 -835 l-1 -643 77 2 78 2 -68 3 c-40
3 -65 8 -62 14 4 5 10 7 13 5 7 -4 7 54 0 85 -2 10 5 13 22 12 24 -3 24 -2 3
6 -24 11 -42 53 -24 59 6 2 11 8 11 13 0 6 -5 7 -10 4 -14 -9 -12 19 2 33 9 9
8 12 -8 13 -10 0 -13 3 -6 6 6 2 10 9 6 14 -3 5 0 9 6 9 7 0 8 6 0 19 -13 25
-13 41 0 21 8 -12 10 -10 10 8 0 14 -4 21 -11 17 -13 -9 -8 27 6 37 6 4 -1 8
-15 9 -14 0 -19 3 -12 6 6 2 12 11 12 19 0 8 8 14 18 13 10 0 12 -3 5 -6 -7
-2 -13 -9 -13 -14 0 -6 5 -7 11 -3 6 3 16 0 21 -7 7 -11 11 -11 15 -1 2 6 14
12 26 11 21 0 21 -1 2 -9 -19 -8 -19 -9 3 -9 l22 -1 -2 298 c-1 163 -3 273 -5
245 -2 -29 -8 -53 -12 -53 -4 0 -8 -7 -8 -15 0 -8 3 -15 7 -15 3 0 6 -16 6
-35 0 -19 -3 -35 -7 -35 -3 0 -5 -12 -3 -27 1 -16 3 -28 4 -28 1 0 3 -28 4
-62 2 -40 -1 -63 -8 -63 -7 0 -8 -3 -1 -8 14 -10 15 -132 1 -132 -6 0 -4 -5 4
-10 12 -8 12 -10 -5 -10 -15 0 -17 -3 -7 -9 10 -6 8 -10 -9 -14 -24 -7 -43 3
-21 10 19 7 14 25 -5 19 -10 -3 -25 -1 -33 4 -13 8 -12 11 4 23 15 11 16 16 6
22 -9 5 -11 4 -6 -3 4 -7 2 -12 -3 -12 -16 0 -14 60 2 61 6 0 3 4 -8 9 -11 5
-15 9 -10 9 12 1 15 61 3 61 -4 0 -8 5 -8 10 0 6 10 8 24 4 14 -3 27 -1 31 7
6 8 4 10 -4 4 -8 -4 -21 1 -32 14 -18 19 -17 25 4 22 4 0 7 6 7 14 0 9 -6 12
-15 9 -8 -4 -15 -1 -15 5 0 6 5 11 11 11 7 0 9 9 6 21 -4 15 0 23 14 26 18 5
19 6 2 19 -15 11 -15 14 -3 15 8 0 4 5 -10 9 -17 5 -19 8 -7 9 20 1 23 17 5
24 -9 4 -7 6 3 6 17 1 18 22 1 61 -6 15 -6 29 -1 34 12 14 11 36 -2 36 -5 0
-8 -4 -4 -9 3 -5 1 -12 -4 -15 -5 -4 -8 2 -7 11 2 11 15 21 32 24 24 6 25 7 6
8 -13 0 -20 6 -17 11 3 6 2 10 -3 10 -17 0 -21 40 -6 54 12 13 12 15 -4 19
-16 4 -16 5 1 6 9 0 17 6 17 12 0 5 -4 8 -9 5 -5 -3 -12 1 -15 10 -4 11 -2 15
8 11 8 -3 17 0 19 8 3 7 -4 16 -16 20 -18 6 -19 8 -6 12 27 7 31 41 5 46 -21
4 -21 4 2 12 12 4 22 12 22 17 0 5 -4 7 -9 4 -5 -3 -12 2 -15 11 -7 16 11 36
25 27 4 -2 6 4 5 14 -1 13 7 17 32 18 29 1 32 -2 32 -27 0 -17 -5 -29 -12 -29
-9 0 -8 -4 2 -10 14 -9 7 -14 -13 -11 -5 1 -6 -3 -2 -9 3 -6 10 -8 15 -5 12 7
8 -69 -4 -77 -8 -5 -8 -8 0 -8 12 0 12 -69 -1 -90 -5 -8 -4 -11 2 -7 6 4 10
-6 11 -23 0 -22 -4 -30 -21 -33 -19 -4 -18 -4 4 -6 l27 -1 4 228 c3 125 8 235
12 245 7 15 1 17 -50 19 l-59 1 65 7 65 7 -72 1 c-66 2 -72 0 -79 -20z m119
-15 c-7 -2 -13 -16 -13 -29 0 -13 -6 -24 -12 -24 -9 0 -8 -4 2 -10 10 -6 11
-10 2 -10 -13 0 -12 -21 2 -31 18 -13 -4 -28 -28 -19 -15 5 -27 5 -34 -2 -12
-12 -42 -4 -42 11 0 6 6 8 13 6 6 -3 26 -1 42 4 l30 9 -37 1 c-21 1 -38 6 -38
11 0 6 6 10 13 10 9 0 8 3 -2 9 -11 7 -10 11 5 20 11 6 14 11 8 11 -7 0 -14 9
-17 20 -5 18 0 20 56 19 34 0 56 -3 50 -6z"/>
<path d="M260 2401 c0 -5 -8 -12 -17 -14 -14 -4 -12 -5 5 -6 13 -1 22 5 22 14
0 8 -2 15 -5 15 -3 0 -5 -4 -5 -9z"/>
<path d="M2750 2185 c0 -87 4 -145 10 -145 5 0 7 7 4 15 -4 9 0 15 7 15 11 0
11 3 -1 11 -12 8 -12 12 -2 16 10 4 10 8 0 21 -7 9 -8 13 -3 10 6 -4 11 2 11
12 0 10 -4 16 -9 13 -5 -3 -7 3 -5 13 2 11 10 22 18 26 12 5 11 7 -3 7 -14 1
-18 8 -15 29 2 19 8 26 20 24 9 -1 19 2 23 8 4 6 -1 7 -11 3 -12 -4 -15 -3
-10 6 4 7 3 10 -4 9 -7 -2 -14 5 -15 15 -2 10 3 17 13 17 15 0 15 2 2 10 -8 5
-18 10 -22 10 -5 0 -8 -65 -8 -145z"/>
<path d="M2787 2049 c7 -7 15 -10 18 -7 3 3 -2 9 -12 12 -14 6 -15 5 -6 -5z"/>
<path d="M2750 2000 c0 -6 30 -10 70 -10 40 0 70 4 70 10 0 6 -30 10 -70 10
-40 0 -70 -4 -70 -10z"/>
<path d="M225 1980 c-19 -8 -19 -9 2 -9 12 -1 25 4 28 9 7 12 -2 12 -30 0z"/>
<path d="M2750 1890 l0 -90 69 0 69 0 -2 90 c-1 77 -3 90 -18 90 -9 0 -20 -4
-23 -10 -3 -5 -14 -10 -23 -9 -14 0 -13 2 3 9 15 6 8 9 -27 9 l-48 1 0 -90z
m79 60 c15 0 30 -3 34 -6 9 -10 -4 -34 -18 -34 -8 0 -17 -5 -21 -12 -4 -7 -3
-8 4 -4 7 4 20 2 29 -3 16 -9 15 -11 -7 -12 -17 -1 -20 -3 -7 -6 9 -2 15 -9
11 -14 -3 -5 -10 -7 -15 -4 -5 4 -9 1 -9 -4 0 -6 9 -11 21 -11 18 0 19 -2 5
-15 -18 -19 -86 -20 -86 -2 0 7 6 19 13 26 10 10 9 11 -3 6 -11 -4 -16 1 -16
15 0 13 7 20 21 21 19 0 19 1 -2 9 -13 5 -23 12 -23 15 0 4 6 3 13 -1 9 -5 9
-4 0 6 -13 14 -6 43 8 34 5 -3 9 1 10 8 0 10 2 10 6 1 2 -7 17 -13 32 -13z"/>
<path d="M2788 1823 c6 -2 18 -2 25 0 6 3 1 5 -13 5 -14 0 -19 -2 -12 -5z"/>
<path d="M240 1926 c0 -2 7 -7 16 -10 8 -3 12 -2 9 4 -6 10 -25 14 -25 6z"/>
<path d="M228 1803 c7 -3 16 -2 19 1 4 3 -2 6 -13 5 -11 0 -14 -3 -6 -6z"/>
<path d="M2810 1780 l65 -7 -65 -3 -65 -3 65 -7 c36 -4 54 -8 40 -9 l-25 -3
25 -8 25 -8 -25 -2 -25 -2 25 -8 c21 -7 19 -8 -17 -9 -24 -1 -43 -5 -43 -9 0
-5 16 -8 35 -7 19 0 35 -3 35 -7 0 -4 -18 -7 -40 -6 -26 1 -40 6 -40 15 0 7
-6 13 -13 13 -7 0 -13 -9 -13 -20 0 -18 7 -20 68 -20 l67 0 -1 60 -2 60 -70
-2 -71 -1 65 -7z"/>
<path d="M240 1769 c0 -5 5 -7 10 -4 6 3 10 8 10 11 0 2 -4 4 -10 4 -5 0 -10
-5 -10 -11z"/>
<path d="M2750 1735 c0 -10 10 -15 33 -15 23 0 34 5 34 15 0 10 -11 15 -34 15
-23 0 -33 -5 -33 -15z m47 -1 c-3 -3 -12 -4 -19 -1 -8 3 -5 6 6 6 11 1 17 -2
13 -5z"/>
<path d="M213 1698 c15 -5 27 -15 27 -20 0 -6 2 -9 5 -6 13 13 -9 38 -34 37
l-26 -1 28 -10z"/>
<path d="M2750 1544 c0 -103 2 -114 18 -111 9 1 18 6 20 10 5 17 1 19 -15 6
-15 -13 -16 -11 -10 11 4 14 7 29 7 33 0 5 4 5 10 2 5 -3 3 9 -5 28 -8 20 -10
39 -5 47 5 8 6 18 4 22 -3 4 1 8 8 8 9 0 9 3 -2 10 -8 5 -10 10 -4 10 7 0 14
8 16 18 4 12 -2 17 -19 18 -23 2 -23 1 -23 -112z"/>
<path d="M2865 1650 c-3 -5 -21 -11 -38 -11 l-32 -1 30 -7 c24 -5 29 -11 27
-29 -2 -13 2 -22 10 -22 10 0 10 -2 -1 -9 -8 -5 -10 -14 -5 -22 10 -16 10 -44
-1 -83 -5 -20 -4 -31 6 -38 10 -7 7 -8 -11 -5 -14 3 -43 2 -65 -2 -35 -7 -31
-8 33 -9 l72 -1 0 125 c0 113 -7 144 -25 114z"/>
<path d="M200 1531 c0 -6 4 -13 10 -16 6 -3 7 1 4 9 -7 18 -14 21 -14 7z"/>
<path d="M2835 1520 c3 -5 8 -10 11 -10 2 0 4 5 4 10 0 6 -5 10 -11 10 -5 0
-7 -4 -4 -10z"/>
<path d="M245 1510 c3 -5 8 -10 11 -10 2 0 4 5 4 10 0 6 -5 10 -11 10 -5 0 -7
-4 -4 -10z"/>
<path d="M235 1430 c-3 -5 1 -10 10 -10 9 0 13 5 10 10 -3 6 -8 10 -10 10 -2
0 -7 -4 -10 -10z"/>
<path d="M2751 1227 c0 -95 3 -167 5 -160 3 7 13 9 22 6 14 -4 15 -3 2 6 -8 5
-11 13 -7 17 4 4 3 12 -3 19 -8 9 -8 50 -1 164 1 16 5 21 17 17 8 -3 12 -2 9
4 -3 6 -12 10 -19 10 -16 0 -15 38 2 65 9 14 15 16 18 8 3 -7 17 -13 30 -13
17 0 23 4 18 12 -4 6 -3 8 4 5 11 -8 4 -46 -9 -48 -5 -1 -13 -2 -18 -3 -5 0
-13 -4 -16 -8 -4 -4 5 -5 20 -2 18 3 24 1 20 -6 -4 -6 1 -20 11 -31 9 -10 14
-20 11 -20 -4 -1 -11 -2 -16 -3 -5 0 -13 -5 -18 -10 -5 -5 -3 -6 5 -2 11 6 17
-5 13 -26 0 -5 3 -8 9 -8 6 0 10 -4 10 -10 0 -5 -8 -10 -17 -10 -15 0 -16 -2
-3 -10 14 -9 7 -14 -13 -11 -5 1 -5 -4 -1 -11 5 -7 9 -17 10 -23 1 -5 6 -19
10 -29 4 -12 4 -17 -2 -13 -8 5 -12 -38 -4 -53 1 -3 2 -8 2 -11 -4 -28 -3 -78
1 -96 5 -19 0 -23 -36 -29 l-42 -8 40 -7 c40 -6 40 -6 -12 -8 -54 -1 -75 -20
-25 -22 l27 -1 -30 -7 c-42 -9 -18 -21 45 -22 29 -1 48 -4 43 -8 -15 -10 -22
-51 -10 -53 7 -1 -15 -4 -48 -8 l-60 -7 60 -3 60 -3 -60 -7 -60 -7 60 -1 c38
-2 55 -5 46 -11 -9 -6 -10 -10 -2 -16 9 -5 9 -10 1 -20 -7 -8 -9 -19 -5 -25 3
-5 2 -10 -4 -10 -6 0 -7 -7 -4 -17 4 -11 3 -14 -5 -9 -7 4 -14 -4 -18 -21 -4
-15 -14 -34 -21 -42 -12 -11 -12 -15 -1 -22 8 -5 -9 -8 -42 -8 -30 1 -47 3
-37 6 9 2 17 9 17 14 0 5 10 10 23 10 17 1 16 3 -7 8 -26 5 -28 8 -15 21 16
17 21 47 13 70 -4 9 -15 -8 -28 -45 -13 -33 -27 -68 -31 -78 -6 -15 0 -17 68
-17 l75 0 26 83 c14 45 29 119 32 164 6 74 5 81 -12 86 -17 4 -17 5 -1 6 16 1
17 21 17 265 l0 264 -70 0 -70 0 1 -171z m119 99 c0 -8 -4 -17 -8 -20 -4 -2
-8 4 -8 15 0 10 4 19 8 19 4 0 8 -6 8 -14z m-31 -467 c-15 -9 -32 -2 -24 11 3
5 13 6 21 3 12 -4 13 -8 3 -14z"/>
<path d="M220 1321 c0 -5 16 -9 35 -8 19 1 35 5 35 9 0 4 -16 8 -35 8 -19 0
-35 -4 -35 -9z"/>
<path d="M226 1285 c-4 -12 3 -15 34 -15 22 0 40 4 40 10 0 5 -13 7 -32 3 -22
-4 -29 -3 -24 5 4 7 3 12 -2 12 -6 0 -12 -7 -16 -15z"/>
<path d="M214 1253 c6 -7 29 -13 54 -15 19 -2 14 -18 -5 -19 -15 0 -15 -2 2
-9 11 -5 14 -9 8 -9 -18 -1 -16 -18 2 -18 11 0 15 11 15 39 0 38 0 38 -42 38
-23 0 -38 -3 -34 -7z"/>
<path d="M132 1220 c0 -14 2 -19 5 -12 2 6 2 18 0 25 -3 6 -5 1 -5 -13z"/>
<path d="M132 1160 c0 -14 2 -19 5 -12 2 6 2 18 0 25 -3 6 -5 1 -5 -13z"/>
<path d="M275 1160 c3 -5 0 -10 -7 -10 -8 0 -9 -3 -3 -8 16 -11 18 -44 3 -53
-11 -7 -11 -9 0 -9 17 0 12 -41 -8 -58 -8 -8 -10 -11 -4 -8 13 7 27 -21 18
-35 -3 -5 0 -9 5 -9 7 0 11 36 11 100 0 64 -4 100 -11 100 -5 0 -7 -4 -4 -10z"/>
<path d="M2902 1150 c0 -14 2 -19 5 -12 2 6 2 18 0 25 -3 6 -5 1 -5 -13z"/>
<path d="M2901 1073 c-1 -23 3 -44 7 -47 4 -2 6 12 4 32 -5 56 -10 62 -11 15z"/>
<path d="M131 1054 c0 -11 3 -14 6 -6 3 7 2 16 -1 19 -3 4 -6 -2 -5 -13z"/>
<path d="M2760 1040 c10 -6 11 -10 3 -10 -9 0 -13 -20 -13 -65 0 -36 4 -65 9
-65 5 0 8 19 6 42 -3 26 1 45 8 50 9 6 9 8 -1 8 -9 0 -10 5 -3 19 11 19 5 31
-13 31 -6 0 -4 -5 4 -10z"/>
<path d="M133 965 c0 -38 2 -53 4 -32 2 20 2 52 0 70 -2 17 -4 1 -4 -38z"/>
<path d="M2906 999 c-7 -19 -12 -329 -6 -322 5 5 17 325 13 332 -1 2 -5 -2 -7
-10z"/>
<path d="M154 827 c8 -157 42 -278 102 -367 28 -41 31 -58 7 -39 -16 13 -17
12 -4 -4 8 -9 16 -15 19 -12 3 2 35 -23 71 -58 71 -66 169 -123 266 -153 57
-18 109 -19 910 -19 810 0 853 1 910 19 77 25 128 50 188 93 26 18 53 31 59
27 6 -4 8 -3 5 3 -4 6 8 28 26 48 17 20 49 63 69 95 l37 58 -75 4 -75 3 -24
-37 c-49 -74 -179 -152 -293 -177 -70 -15 -1574 -16 -1653 -1 -75 14 -189 71
-243 120 -39 36 -83 97 -132 185 -9 15 -21 19 -70 17 -41 0 -51 2 -34 7 l25 7
-22 8 c-24 8 -31 26 -10 26 7 0 8 3 2 8 -17 12 -41 47 -27 38 15 -9 15 -5 2
28 -6 17 -6 26 0 26 6 0 10 11 10 25 0 14 -3 25 -7 25 -5 0 -9 19 -10 43 -2
32 0 38 8 27 9 -12 10 -11 6 6 -4 17 1 21 34 22 41 3 45 -3 48 -67 1 -19 -4
-38 -11 -43 -10 -6 -8 -8 5 -8 14 0 17 10 17 65 l0 65 -71 0 -71 0 6 -113z
m121 -216 l-50 -5 50 -6 50 -7 -46 -1 c-31 -1 -51 3 -59 13 -11 13 -5 15 46
13 l59 -2 -50 -5z m30 -40 l-40 -6 43 -8 c37 -6 42 -10 37 -27 -4 -14 -2 -20
9 -20 8 0 18 -5 22 -12 4 -6 3 -8 -2 -5 -6 3 -16 2 -24 -4 -12 -7 -11 -9 5 -9
11 0 28 -7 38 -14 18 -14 18 -14 0 -19 -14 -4 -13 -5 5 -6 13 0 20 -5 17 -11
-3 -5 1 -10 10 -10 9 0 19 -9 22 -20 3 -11 13 -20 23 -20 10 0 32 -11 48 -25
17 -14 44 -30 61 -36 17 -6 31 -14 31 -18 0 -4 17 -8 37 -9 20 -2 42 -6 48
-11 5 -4 25 -7 42 -5 21 1 30 -2 26 -9 -4 -6 -1 -7 7 -2 21 13 78 16 85 5 3
-5 21 -9 38 -9 l32 1 -30 8 c-25 6 -26 8 -7 9 13 0 32 -4 43 -9 14 -8 19 -7
19 2 0 9 3 9 8 2 9 -14 151 -17 167 -4 9 7 15 7 19 1 4 -5 27 -8 51 -5 29 2
45 0 45 -7 0 -7 9 -9 23 -4 31 9 156 22 152 15 -2 -3 30 -6 71 -7 44 -1 72 2
69 8 -4 5 1 9 10 9 9 0 13 -4 10 -10 -3 -6 1 -10 9 -10 9 0 16 4 16 8 0 4 18
8 39 8 22 -1 37 -4 35 -7 -5 -9 84 -4 93 4 3 4 15 -1 25 -10 16 -14 18 -14 13
-1 -5 12 1 15 27 13 18 -1 41 -5 50 -9 9 -4 25 -3 35 3 12 6 25 6 34 0 7 -5
21 -8 29 -8 10 0 8 3 -5 9 -14 6 -3 9 40 9 42 1 56 -2 45 -9 -12 -8 -11 -10 8
-10 12 0 22 6 23 13 0 9 2 9 6 -1 2 -6 9 -10 13 -7 5 3 54 7 109 10 125 5 165
12 219 36 24 11 48 16 54 13 7 -4 8 -3 4 4 -4 7 -2 12 5 12 7 0 31 16 55 35
23 19 45 35 49 35 16 0 75 69 70 82 -4 11 6 15 44 17 27 1 52 -3 56 -9 6 -9
-19 -14 -55 -11 -12 1 -11 -1 2 -9 9 -6 15 -17 12 -25 -4 -8 -10 -12 -15 -9
-5 3 -9 -2 -9 -10 0 -10 -9 -16 -22 -16 -18 0 -20 -2 -9 -9 12 -8 12 -12 2
-25 -7 -9 -18 -13 -24 -9 -6 3 -7 1 -3 -5 3 -6 -3 -16 -14 -22 -11 -6 -20 -17
-20 -25 0 -14 -11 -19 -37 -16 -6 1 -15 -4 -19 -10 -5 -8 -3 -9 7 -4 8 5 11 4
6 0 -4 -5 -17 -10 -28 -12 -11 -2 -27 -10 -35 -18 -16 -15 -28 -19 -52 -16 -8
1 -20 -3 -28 -10 -8 -6 -14 -8 -14 -4 0 4 -6 3 -13 -3 -7 -6 -30 -12 -50 -14
-20 -1 -37 -7 -37 -13 0 -5 -5 -2 -11 8 -12 20 -32 22 -47 5 -9 -12 -32 -13
-185 -9 -10 1 -15 5 -12 11 3 5 2 10 -4 10 -5 0 -13 -4 -16 -10 -3 -5 -12 -10
-18 -10 -7 0 -6 4 3 10 11 7 7 10 -17 10 -18 0 -33 -3 -33 -7 0 -5 -44 -7 -97
-7 -67 1 -84 0 -53 -5 l45 -7 -42 -5 c-41 -4 -60 8 -55 33 1 5 -3 8 -9 8 -6 0
-9 -6 -6 -14 7 -17 -17 -23 -63 -16 -49 7 -96 0 -79 -12 11 -8 10 -9 -2 -5 -9
3 -23 0 -30 -6 -11 -10 -11 -9 0 6 15 20 12 21 -24 7 -17 -7 -24 -7 -20 0 7
11 -41 12 -127 1 -54 -7 -58 -6 -59 13 -1 17 -2 18 -6 4 -5 -20 -57 -25 -68
-8 -4 6 -11 8 -16 4 -6 -3 -50 -6 -100 -6 -53 0 -89 -4 -89 -10 0 -7 -4 -7
-12 -1 -7 6 -42 11 -77 12 -50 2 -62 0 -56 -11 6 -10 5 -11 -6 0 -8 8 -46 12
-111 12 -59 0 -98 4 -98 10 0 6 -32 10 -75 10 -41 0 -75 4 -75 9 0 4 33 7 73
5 l72 -3 -55 10 c-30 5 -67 11 -82 13 -16 2 -31 5 -35 6 -5 1 -17 2 -28 1 -17
-2 -18 0 -5 9 12 10 11 11 -8 7 -14 -3 -20 -1 -15 6 4 7 0 8 -11 4 -9 -4 -15
-3 -12 2 5 8 -15 21 -30 20 -3 0 -14 9 -23 20 -10 12 -23 21 -29 21 -6 0 -9 7
-5 15 3 9 2 15 -3 13 -13 -4 -54 39 -54 58 0 8 -4 13 -8 10 -11 -6 -50 54 -54
84 -2 17 -11 27 -28 31 -14 4 6 7 45 6 56 0 62 -1 30 -6z m1228 -298 c-7 -2
-19 -2 -25 0 -7 3 -2 5 12 5 14 0 19 -2 13 -5z m374 1 c-3 -3 -12 -4 -19 -1
-8 3 -5 6 6 6 11 1 17 -2 13 -5z m92 -80 c8 -8 -64 -2 -84 6 -13 6 -3 7 30 4
28 -4 52 -8 54 -10z m-1136 -1 c-13 -2 -33 -2 -45 0 -13 2 -3 4 22 4 25 0 35
-2 23 -4z"/>
<path d="M458 333 c7 -3 16 -2 19 1 4 3 -2 6 -13 5 -11 0 -14 -3 -6 -6z"/>
<path d="M1402 234 c-14 -16 -5 -18 17 -5 7 5 9 11 5 14 -5 3 -15 -1 -22 -9z"/>
<path d="M1451 236 c-10 -12 -8 -13 8 -9 12 3 18 9 15 14 -7 12 -10 11 -23 -5z"/>
<path d="M2078 243 c12 -2 30 -2 40 0 9 3 -1 5 -23 4 -22 0 -30 -2 -17 -4z"/>
<path d="M788 223 c7 -3 16 -2 19 1 4 3 -2 6 -13 5 -11 0 -14 -3 -6 -6z"/>
<path d="M838 223 c12 -2 32 -2 45 0 12 2 2 4 -23 4 -25 0 -35 -2 -22 -4z"/>
<path d="M1698 223 c7 -3 16 -2 19 1 4 3 -2 6 -13 5 -11 0 -14 -3 -6 -6z"/>
<path d="M133 835 c0 -33 2 -45 4 -27 2 18 2 45 0 60 -2 15 -4 0 -4 -33z"/>
<path d="M2768 823 c12 -2 30 -2 40 0 9 3 -1 5 -23 4 -22 0 -30 -2 -17 -4z"/>
<path d="M2763 803 c9 -2 23 -2 30 0 6 3 -1 5 -18 5 -16 0 -22 -2 -12 -5z"/>
<path d="M280 758 c-1 -27 -3 -54 -4 -60 -1 -7 2 -19 8 -26 7 -10 5 -17 -5
-24 -12 -8 -12 -9 1 -5 16 4 20 52 9 122 l-6 40 -3 -47z"/>
<path d="M2763 783 c9 -2 23 -2 30 0 6 3 -1 5 -18 5 -16 0 -22 -2 -12 -5z"/>
<path d="M2749 721 c12 -8 51 -4 51 5 0 2 -15 4 -32 4 -23 0 -29 -3 -19 -9z"/>
<path d="M2882 640 c0 -14 2 -19 5 -12 2 6 2 18 0 25 -3 6 -5 1 -5 -13z"/>
<path d="M2852 561 c-6 -17 -9 -31 -6 -31 7 0 25 52 20 57 -2 2 -8 -10 -14
-26z"/>
<path d="M300 356 c0 -2 7 -7 16 -10 8 -3 12 -2 9 4 -6 10 -25 14 -25 6z"/>
<path d="M350 316 c0 -2 8 -10 18 -17 15 -13 16 -12 3 4 -13 16 -21 21 -21 13z"/>
<path d="M2649 283 c-13 -16 -12 -17 4 -4 16 13 21 21 13 21 -2 0 -10 -8 -17
-17z"/>
<path d="M2554 224 c-18 -14 -18 -15 4 -4 12 6 22 13 22 15 0 8 -5 6 -26 -11z"/>
<path d="M2428 173 c7 -3 16 -2 19 1 4 3 -2 6 -13 5 -11 0 -14 -3 -6 -6z"/>
<path d="M2388 163 c7 -3 16 -2 19 1 4 3 -2 6 -13 5 -11 0 -14 -3 -6 -6z"/>
<path d="M720 151 c36 -11 260 -11 235 -1 -11 5 -74 8 -140 8 -66 0 -109 -3
-95 -7z"/>
<path d="M1004 153 c10 -11 66 -13 66 -2 0 5 -16 9 -37 9 -20 0 -33 -3 -29 -7z"/>
<path d="M1090 150 c-11 -8 -7 -9 15 -4 37 8 45 14 19 14 -10 0 -26 -5 -34
-10z"/>
<path d="M1175 150 c-3 -5 -1 -10 4 -10 6 0 11 5 11 10 0 6 -2 10 -4 10 -3 0
-8 -4 -11 -10z"/>
<path d="M1220 148 c0 -4 14 -8 31 -8 17 0 28 4 24 10 -7 11 -55 9 -55 -2z"/>
<path d="M1301 151 c-10 -6 -3 -9 21 -9 19 0 41 4 49 9 10 6 3 9 -21 9 -19 0
-41 -4 -49 -9z"/>
<path d="M1415 149 c27 -9 314 -2 324 7 2 2 -76 4 -175 3 -127 0 -170 -3 -149
-10z"/>
<path d="M1798 153 c7 -3 16 -2 19 1 4 3 -2 6 -13 5 -11 0 -14 -3 -6 -6z"/>
</g>
</svg>
