<?xml version="1.0" encoding="iso-8859-1"?>
<!-- Uploaded to: SVG Repo, www.svgrepo.com, Generator: SVG Repo Mixer Tools -->
<svg version="1.1" id="Layer_1" xmlns="http://www.w3.org/2000/svg" xmlns:xlink="http://www.w3.org/1999/xlink" 
	 viewBox="0 0 512 512" xml:space="preserve">
<rect y="22.261" style="fill:#46F8FF;" width="512" height="467.478"/>
<rect y="22.261" style="fill:#005ECE;" width="512" height="133.565"/>
<path d="M0,22.261v467.478h512V22.261H0z M33.391,155.826h122.435v77.913H33.391V155.826z M189.217,233.739v-77.913h133.565v77.913
	H189.217z M322.783,267.13v77.913H189.217V267.13H322.783z M33.391,267.13h122.435v77.913H33.391V267.13z M33.391,456.348v-77.913
	h122.435v77.913H33.391z M189.217,456.348v-77.913h133.565v77.913H189.217z M478.609,456.348H356.174v-77.913h122.435V456.348z
	 M478.609,345.043H356.174V267.13h122.435V345.043z M478.609,233.739H356.174v-77.913h122.435V233.739z M478.609,122.435H33.391
	V55.652h445.217V122.435z"/>
</svg>